<?xml version="1.0" encoding="UTF-8" standalone="no"?>
<svg
   xmlns:dc="http://purl.org/dc/elements/1.1/"
   xmlns:cc="http://creativecommons.org/ns#"
   xmlns:rdf="http://www.w3.org/1999/02/22-rdf-syntax-ns#"
   xmlns:svg="http://www.w3.org/2000/svg"
   xmlns="http://www.w3.org/2000/svg"
   viewBox="0 0 238.75 65"
   height="65"
   width="238.75"
   xml:space="preserve"
   version="1.1"
   id="svg2"><metadata
     id="metadata8"><rdf:RDF><cc:Work
         rdf:about=""><dc:format>image/svg+xml</dc:format><dc:type
           rdf:resource="http://purl.org/dc/dcmitype/StillImage" /></cc:Work></rdf:RDF></metadata><defs
     id="defs6"><clipPath
       id="clipPath16"
       clipPathUnits="userSpaceOnUse"><path
         id="path18"
         d="M 0,52 191,52 191,0 0,0 0,52 Z" /></clipPath></defs><g
     transform="matrix(1.25,0,0,-1.25,0,65)"
     id="g10"><g
       id="g12"><g
         clip-path="url(#clipPath16)"
         id="g14"><g
           transform="translate(101.6098,25.744)"
           id="g20"><path
             id="path22"
             style="fill:#0d109c;fill-opacity:1;fill-rule:nonzero;stroke:none"
             d="m 0,0 c -1.239,-1.471 -2.988,-2.207 -5.248,-2.207 -2.199,0 -3.936,0.751 -5.213,2.253 -1.278,1.501 -1.916,3.972 -1.916,7.408 0,3.468 0.642,5.953 1.927,7.455 1.285,1.501 2.988,2.253 5.109,2.253 2.214,0 3.967,-0.74 5.26,-2.218 C 1.211,13.465 1.858,11.124 1.858,7.919 1.858,4.11 1.239,1.471 0,0 m -32.37,12.285 c -0.441,-0.573 -1.01,-0.929 -1.707,-1.068 -1.378,-0.31 -2.307,-0.465 -2.786,-0.465 l -4.436,0 0,6.921 4.621,0 c 1.92,0 3.229,-0.295 3.925,-0.883 0.697,-0.588 1.045,-1.432 1.045,-2.531 0,-0.743 -0.22,-1.401 -0.662,-1.974 M 32.772,4.436 C 32.307,2.283 31.56,0.642 30.531,-0.488 c -1.03,-1.131 -2.551,-1.695 -4.563,-1.695 -2.075,0 -3.685,0.699 -4.831,2.099 -1.146,1.399 -1.718,3.986 -1.718,7.759 0,3.046 0.479,5.281 1.44,6.703 1.269,1.918 3.096,2.877 5.48,2.877 1.053,0 2.005,-0.217 2.857,-0.651 0.851,-0.433 1.571,-1.053 2.159,-1.858 0.357,-0.48 0.697,-1.238 1.022,-2.275 l 9.29,2.067 c -1.193,3.591 -3.016,6.254 -5.469,7.988 -2.454,1.734 -5.826,2.601 -10.114,2.601 -5.481,0 -9.719,-1.512 -12.715,-4.537 -1.139,-1.15 -2.058,-2.491 -2.764,-4.017 -0.722,1.505 -1.662,2.837 -2.825,3.991 -3.065,3.042 -7.432,4.563 -13.098,4.563 -5.527,0 -9.838,-1.548 -12.935,-4.644 -1.228,-1.229 -2.202,-2.659 -2.944,-4.275 -0.153,1.689 -0.656,3.159 -1.523,4.402 -1.053,1.51 -2.439,2.544 -4.157,3.101 -1.719,0.557 -4.204,0.836 -7.455,0.836 l -26.294,0 -3.601,-19.034 -5.279,19.034 -9.956,0 -5.265,-19.06 -3.597,19.06 -9.992,0 7.574,-34.046 10.316,0 5.948,21.436 5.972,-21.436 10.316,0 6.325,28.694 0,-28.694 10.566,0 0,13.818 0.929,0 c 0.96,0 1.819,-0.263 2.578,-0.789 0.557,-0.403 1.192,-1.278 1.904,-2.625 l 5.623,-10.404 11.887,0 -5.094,9.865 c -0.248,0.496 -0.739,1.201 -1.474,2.116 -0.735,0.914 -1.296,1.511 -1.682,1.79 -0.573,0.418 -1.486,0.836 -2.739,1.255 1.565,0.356 2.796,0.805 3.695,1.347 1.155,0.698 2.097,1.58 2.846,2.627 -0.047,-0.648 -0.071,-1.314 -0.071,-2 0,-3.979 0.781,-7.292 2.345,-9.939 1.564,-2.648 3.603,-4.584 6.12,-5.806 2.515,-1.223 5.693,-1.835 9.532,-1.835 3.778,0 6.932,0.708 9.464,2.125 2.531,1.416 4.466,3.398 5.805,5.945 0.106,0.201 0.2,0.414 0.298,0.623 0.234,-0.486 0.482,-0.961 0.763,-1.406 1.703,-2.708 3.727,-4.599 6.073,-5.674 2.346,-1.075 5.368,-1.613 9.068,-1.613 3.051,0 5.563,0.441 7.536,1.323 1.974,0.883 3.626,2.191 4.958,3.925 1.332,1.734 2.307,3.894 2.927,6.479 l -9.22,2.788 z" /></g><g
           transform="translate(183.4359,23.0545)"
           id="g24"><path
             id="path26"
             style="fill:#0d109c;fill-opacity:1;fill-rule:nonzero;stroke:none"
             d="m 0,0 -6.809,0 1.447,6.809 6.809,0 L 0,0 Z" /></g><g
           transform="translate(180.9688,43.4814)"
           id="g28"><path
             id="path30"
             style="fill:#007db7;fill-opacity:1;fill-rule:nonzero;stroke:none"
             d="m 0,0 -6.809,0 1.447,6.809 6.809,0 L 0,0 Z" /></g><g
           transform="translate(176.6269,23.0545)"
           id="g32"><path
             id="path34"
             style="fill:#ff4721;fill-opacity:1;fill-rule:nonzero;stroke:none"
             d="m 0,0 -6.809,0 1.447,6.809 6.809,0 L 0,0 Z" /></g><g
           transform="translate(175.1797,16.2455)"
           id="g36"><path
             id="path38"
             style="fill:#0d109c;fill-opacity:1;fill-rule:nonzero;stroke:none"
             d="m 0,0 -6.809,0 1.447,6.809 6.809,0 L 0,0 Z" /></g><g
           transform="translate(164.4563,29.8635)"
           id="g40"><path
             id="path42"
             style="fill:#007db7;fill-opacity:1;fill-rule:nonzero;stroke:none"
             d="m 0,0 -6.809,0 1.447,6.809 6.809,0 L 0,0 Z" /></g><g
           transform="translate(180.9688,43.4814)"
           id="g44"><path
             id="path46"
             style="fill:#0d109c;fill-opacity:1;fill-rule:nonzero;stroke:none"
             d="m 0,0 -6.809,0 -6.809,0 1.447,6.809 -6.809,0 -1.447,-6.809 -6.809,0 -1.447,-6.809 6.809,0 6.809,0 6.809,0 -1.448,-6.809 6.809,0 1.448,6.809 6.809,0 L 6.809,0 0,0 Z" /></g><g
           transform="translate(164.4563,29.8635)"
           id="g48"><path
             id="path50"
             style="fill:#0d109c;fill-opacity:1;fill-rule:nonzero;stroke:none"
             d="m 0,0 -6.809,0 -6.809,0 -1.447,-6.809 6.809,0 -1.448,-6.809 6.809,0 1.448,6.809 6.809,0 L 6.809,0 0,0 Z" /></g><g
           transform="translate(4.2675,2.4056)"
           id="g52"><path
             id="path54"
             style="fill:#878786;fill-opacity:1;fill-rule:nonzero;stroke:none"
             d="M 0,0 1.474,0 C 1.929,0 2.286,0.042 2.545,0.127 2.804,0.212 3.01,0.331 3.164,0.485 3.38,0.701 3.549,0.993 3.67,1.358 3.791,1.724 3.851,2.167 3.851,2.688 3.851,3.41 3.733,3.965 3.496,4.352 3.259,4.74 2.971,5 2.632,5.132 2.387,5.226 1.993,5.273 1.45,5.273 L 0,5.273 0,0 Z m -0.913,-0.814 0,6.901 2.377,0 C 2.001,6.087 2.41,6.054 2.693,5.988 3.088,5.897 3.426,5.733 3.705,5.494 4.069,5.187 4.341,4.793 4.522,4.315 4.702,3.836 4.793,3.289 4.793,2.674 4.793,2.15 4.731,1.685 4.609,1.281 4.487,0.876 4.33,0.541 4.138,0.275 3.947,0.01 3.737,-0.199 3.51,-0.351 3.282,-0.503 3.008,-0.618 2.686,-0.697 2.364,-0.775 1.995,-0.814 1.577,-0.814 l -2.49,0 z" /></g><g
           transform="translate(16.0729,1.5911)"
           id="g56"><path
             id="path58"
             style="fill:#878786;fill-opacity:1;fill-rule:nonzero;stroke:none"
             d="m 0,0 0,6.902 4.99,0 0,-0.815 -4.077,0 0,-2.114 3.818,0 0,-0.809 -3.818,0 0,-2.35 4.237,0 L 5.15,0 0,0 Z" /></g><g
           transform="translate(30.1942,1.5911)"
           id="g60"><path
             id="path62"
             style="fill:#878786;fill-opacity:1;fill-rule:nonzero;stroke:none"
             d="m 0,0 -2.674,6.902 0.989,0 1.793,-5.014 c 0.145,-0.402 0.265,-0.779 0.363,-1.13 0.106,0.377 0.23,0.753 0.372,1.13 l 1.864,5.014 0.932,0 L 0.937,0 0,0 Z" /></g><g
           transform="translate(40.4088,1.5911)"
           id="g64"><path
             id="path66"
             style="fill:#878786;fill-opacity:1;fill-rule:nonzero;stroke:none"
             d="m 0,0 0,6.902 4.99,0 0,-0.815 -4.077,0 0,-2.114 3.818,0 0,-0.809 -3.818,0 0,-2.35 4.237,0 L 5.15,0 0,0 Z" /></g><g
           transform="translate(52.5198,1.5911)"
           id="g68"><path
             id="path70"
             style="fill:#878786;fill-opacity:1;fill-rule:nonzero;stroke:none"
             d="m 0,0 0,6.902 0.913,0 0,-6.088 3.399,0 L 4.312,0 0,0 Z" /></g><g
           transform="translate(68.3713,2.9799)"
           id="g72"><path
             id="path74"
             style="fill:#878786;fill-opacity:1;fill-rule:nonzero;stroke:none"
             d="m 0,0 c -0.444,-0.483 -1.01,-0.725 -1.697,-0.725 -0.675,0 -1.236,0.239 -1.683,0.718 -0.448,0.479 -0.671,1.134 -0.671,1.965 0,1.039 0.233,1.781 0.699,2.225 0.466,0.444 1.022,0.666 1.669,0.666 0.455,0 0.865,-0.115 1.231,-0.346 C -0.086,4.272 0.191,3.948 0.381,3.529 0.571,3.11 0.666,2.619 0.666,2.057 0.666,1.169 0.444,0.483 0,0 M 1.205,3.905 C 0.937,4.45 0.547,4.874 0.035,5.179 -0.476,5.483 -1.051,5.635 -1.688,5.635 -2.661,5.635 -3.455,5.311 -4.07,4.663 -4.685,4.015 -4.993,3.118 -4.993,1.973 c 0,-0.606 0.132,-1.181 0.396,-1.723 0.263,-0.543 0.651,-0.972 1.163,-1.286 0.511,-0.314 1.092,-0.471 1.741,-0.471 0.6,0 1.159,0.142 1.677,0.427 0.517,0.284 0.918,0.702 1.2,1.254 0.282,0.553 0.424,1.179 0.424,1.879 0,0.69 -0.134,1.308 -0.403,1.852" /></g><g
           transform="translate(80.8479,5.541)"
           id="g76"><path
             id="path78"
             style="fill:#878786;fill-opacity:1;fill-rule:nonzero;stroke:none"
             d="m 0,0 c -0.248,-0.22 -0.667,-0.33 -1.257,-0.33 l -1.784,0 0,2.467 1.765,0 c 0.414,0 0.698,-0.02 0.852,-0.061 C -0.185,2.01 0.007,1.875 0.153,1.669 0.299,1.463 0.372,1.216 0.372,0.927 0.372,0.529 0.248,0.22 0,0 M 1.104,1.897 C 0.964,2.183 0.78,2.405 0.551,2.563 0.322,2.722 0.038,2.829 -0.301,2.886 -0.543,2.93 -0.893,2.952 -1.351,2.952 l -2.604,0 0,-6.902 0.914,0 0,2.806 1.77,0 c 0.976,0 1.651,0.203 2.024,0.61 0.374,0.406 0.561,0.903 0.561,1.49 0,0.342 -0.07,0.656 -0.21,0.941" /></g><g
           transform="translate(99.0726,1.5911)"
           id="g80"><path
             id="path82"
             style="fill:#878786;fill-opacity:1;fill-rule:nonzero;stroke:none"
             d="m 0,0 0,2.924 -2.66,3.978 1.111,0 1.361,-2.081 C 0.063,4.432 0.297,4.043 0.513,3.653 0.72,4.014 0.971,4.421 1.266,4.873 l 1.337,2.029 1.064,0 L 0.913,2.924 0.913,0 0,0 Z" /></g><g
           transform="translate(114.0115,2.9799)"
           id="g84"><path
             id="path86"
             style="fill:#878786;fill-opacity:1;fill-rule:nonzero;stroke:none"
             d="m 0,0 c -0.444,-0.483 -1.01,-0.725 -1.697,-0.725 -0.675,0 -1.236,0.239 -1.683,0.718 -0.448,0.479 -0.671,1.134 -0.671,1.965 0,1.039 0.233,1.781 0.699,2.225 0.466,0.444 1.022,0.666 1.669,0.666 0.455,0 0.865,-0.115 1.231,-0.346 C -0.086,4.272 0.191,3.948 0.381,3.529 0.571,3.11 0.666,2.619 0.666,2.057 0.666,1.169 0.444,0.483 0,0 M 1.205,3.905 C 0.937,4.45 0.547,4.874 0.035,5.179 -0.476,5.483 -1.051,5.635 -1.688,5.635 -2.661,5.635 -3.455,5.311 -4.07,4.663 -4.685,4.015 -4.993,3.118 -4.993,1.973 c 0,-0.606 0.132,-1.181 0.396,-1.723 0.263,-0.543 0.651,-0.972 1.163,-1.286 0.511,-0.314 1.092,-0.471 1.741,-0.471 0.6,0 1.159,0.142 1.677,0.427 0.517,0.284 0.918,0.702 1.2,1.254 0.282,0.553 0.424,1.179 0.424,1.879 0,0.69 -0.134,1.308 -0.403,1.852" /></g><g
           transform="translate(127.0618,8.4929)"
           id="g88"><path
             id="path90"
             style="fill:#878786;fill-opacity:1;fill-rule:nonzero;stroke:none"
             d="m 0,0 0.913,0 0,-3.988 c 0,-0.693 -0.078,-1.244 -0.235,-1.652 -0.157,-0.408 -0.44,-0.74 -0.85,-0.996 -0.409,-0.256 -0.947,-0.383 -1.612,-0.383 -0.647,0 -1.176,0.111 -1.587,0.334 -0.411,0.223 -0.704,0.545 -0.88,0.967 -0.176,0.422 -0.264,0.999 -0.264,1.73 l 0,3.988 0.913,0 0,-3.983 c 0,-0.599 0.056,-1.041 0.168,-1.325 0.111,-0.284 0.302,-0.503 0.574,-0.657 0.271,-0.154 0.603,-0.231 0.996,-0.231 0.671,0 1.15,0.153 1.436,0.457 C -0.143,-5.434 0,-4.849 0,-3.983 L 0,0 Z" /></g><g
           transform="translate(138.123,5.4469)"
           id="g92"><path
             id="path94"
             style="fill:#878786;fill-opacity:1;fill-rule:nonzero;stroke:none"
             d="m 0,0 -1.963,0 0,2.283 2.184,0 C 0.733,2.283 1.107,2.178 1.344,1.968 1.581,1.758 1.7,1.489 1.7,1.163 1.7,0.94 1.638,0.734 1.516,0.544 1.394,0.354 1.215,0.216 0.979,0.13 0.744,0.043 0.417,0 0,0 m 2.006,-1.977 c -0.239,0.367 -0.492,0.673 -0.758,0.918 -0.126,0.113 -0.31,0.227 -0.551,0.343 0.662,0.091 1.152,0.305 1.469,0.641 0.317,0.335 0.475,0.748 0.475,1.238 0,0.38 -0.096,0.726 -0.287,1.04 C 2.162,2.517 1.907,2.736 1.587,2.86 1.266,2.984 0.799,3.046 0.184,3.046 l -3.061,0 0,-6.902 0.914,0 0,3.065 1.059,0 c 0.235,0 0.405,-0.011 0.509,-0.033 0.141,-0.034 0.28,-0.096 0.416,-0.183 0.137,-0.088 0.291,-0.242 0.464,-0.462 0.173,-0.22 0.392,-0.537 0.659,-0.951 l 0.913,-1.436 1.149,0 -1.2,1.879 z" /></g><g
           transform="translate(147.6219,3.8085)"
           id="g96"><path
             id="path98"
             style="fill:#878786;fill-opacity:1;fill-rule:nonzero;stroke:none"
             d="m 0,0 0.862,0.075 c 0.04,-0.345 0.135,-0.628 0.284,-0.849 0.149,-0.222 0.381,-0.401 0.695,-0.537 0.314,-0.137 0.667,-0.205 1.059,-0.205 0.348,0 0.656,0.052 0.923,0.155 0.267,0.104 0.465,0.246 0.595,0.426 0.131,0.181 0.196,0.378 0.196,0.591 0,0.217 -0.063,0.406 -0.189,0.568 C 4.3,0.385 4.093,0.521 3.804,0.631 3.619,0.703 3.209,0.815 2.575,0.967 1.941,1.12 1.497,1.263 1.243,1.398 0.913,1.571 0.668,1.785 0.506,2.041 0.344,2.297 0.264,2.583 0.264,2.9 0.264,3.248 0.363,3.574 0.56,3.877 0.758,4.18 1.047,4.41 1.426,4.567 1.806,4.724 2.228,4.802 2.693,4.802 3.205,4.802 3.656,4.72 4.046,4.555 4.437,4.39 4.738,4.148 4.948,3.828 5.158,3.507 5.271,3.145 5.287,2.74 L 4.411,2.674 C 4.364,3.11 4.205,3.44 3.933,3.663 3.662,3.886 3.261,3.997 2.731,3.997 2.178,3.997 1.776,3.896 1.523,3.693 1.27,3.491 1.144,3.247 1.144,2.961 1.144,2.713 1.233,2.509 1.412,2.349 1.588,2.189 2.047,2.025 2.789,1.857 3.532,1.689 4.041,1.543 4.317,1.417 4.719,1.232 5.015,0.997 5.207,0.713 5.398,0.429 5.494,0.102 5.494,-0.268 5.494,-0.636 5.389,-0.982 5.179,-1.306 4.968,-1.631 4.666,-1.884 4.272,-2.064 3.879,-2.245 3.435,-2.335 2.942,-2.335 c -0.624,0 -1.148,0.091 -1.57,0.273 C 0.95,-1.88 0.619,-1.606 0.379,-1.241 0.139,-0.875 0.013,-0.461 0,0" /></g><g
           transform="translate(160.119,1.5911)"
           id="g100"><path
             id="path102"
             style="fill:#878786;fill-opacity:1;fill-rule:nonzero;stroke:none"
             d="m 0,0 0,6.902 4.99,0 0,-0.815 -4.077,0 0,-2.114 3.818,0 0,-0.809 -3.818,0 0,-2.35 4.237,0 L 5.15,0 0,0 Z" /></g><g
           transform="translate(172.2308,1.5911)"
           id="g104"><path
             id="path106"
             style="fill:#878786;fill-opacity:1;fill-rule:nonzero;stroke:none"
             d="m 0,0 0,6.902 0.913,0 0,-6.088 3.399,0 L 4.312,0 0,0 Z" /></g><g
           transform="translate(183.4144,1.5911)"
           id="g108"><path
             id="path110"
             style="fill:#878786;fill-opacity:1;fill-rule:nonzero;stroke:none"
             d="m 0,0 0,6.902 4.656,0 0,-0.815 -3.743,0 0,-2.137 3.239,0 0,-0.815 -3.239,0 L 0.913,0 0,0 Z" /></g></g></g></g></svg>