<?xml version="1.0" encoding="utf-8"?>
<!-- Generator: Adobe Illustrator 19.2.1, SVG Export Plug-In . SVG Version: 6.00 Build 0)  -->
<svg version="1.1" id="Layer_1" xmlns="http://www.w3.org/2000/svg" xmlns:xlink="http://www.w3.org/1999/xlink" x="0px" y="0px"
	 viewBox="0 0 777.1 376.2" style="enable-background:new 0 0 777.1 376.2;" xml:space="preserve">
<style type="text/css">
	.st0{fill:none;stroke:#FCF2E0;stroke-width:2;stroke-miterlimit:10;stroke-dasharray:2,4;}
	.st1{fill:#C81B0F;}
	.st2{fill:#4EA78B;}
	.st3{fill:#2F8468;}
	.st4{fill:#F7B03B;}
	.st5{fill:#FBF1DF;}
	.st6{fill:#292324;}
	.st7{fill:#5B5B2F;}
	.st8{fill:#FCF2E0;}
</style>
<g class="hanging">
	<g id="_x31_0">
		<line class="st0" x1="726.7" y1="163.8" x2="726.7" y2="0"/>
		<circle class="st1" cx="726.7" cy="129.9" r="8.8"/>
		<circle class="st1" cx="726.7" cy="105.9" r="5.1"/>
		<path class="st2" d="M766,281.9h-78.9c-4,0-7.2-3.2-7.2-7.2v-93.4c0-4,3.2-7.2,7.2-7.2H766c4,0,7.2,3.2,7.2,7.2v93.4
			C773.2,278.7,770,281.9,766,281.9z"/>
		<path class="st2" d="M777.1,200.1v-23.9c0-4.1-3.2-7.4-7.2-7.4h-86.6c-4,0-7.2,3.4-7.2,7.4v23.9H777.1z"/>
		<rect x="680" y="199.8" class="st3" width="93.3" height="6.6"/>
		<rect x="712.9" y="166.9" class="st1" width="26.9" height="116.9"/>
		<path class="st1" d="M728.7,168.8c0,0,0.1-0.3,0.2-0.8c0.1-0.5,0.3-1.2,0.6-2.2c0.3-0.9,0.7-2,1.3-3.3c0.5-1.2,1.2-2.6,2.1-4.1
			c1.7-2.9,4.1-6.1,7.1-9c0.8-0.7,1.6-1.5,2.4-2.2c0.9-0.7,1.8-1.4,2.9-2c0.6-0.3,1.1-0.6,1.8-0.8c0.3-0.1,0.6-0.2,1-0.3l0.5-0.1
			l0.6-0.1c1.5-0.2,3-0.2,4.6,0.5c0.8,0.4,1.6,0.9,2.2,1.7c0.2,0.2,0.3,0.4,0.4,0.6l0.1,0.2l0.1,0.2l0.1,0.2c0,0.1,0.2,0.4,0.2,0.7
			c0.1,0.3,0.1,0.5,0.2,0.8c0.1,0.9,0,1.8-0.2,2.6s-0.5,1.4-0.8,2c-0.6,1.2-1.5,2.2-2.2,2.9s-1.5,1.6-2.3,2.3c-3.1,2.9-6.2,5.2-9,7
			s-5.2,3.1-6.9,4s-2.7,1.3-2.7,1.3s0.8-0.8,2.1-2.1c1.4-1.3,3.4-3.2,5.7-5.4s5-4.8,7.6-7.8c0.7-0.8,1.2-1.4,1.9-2.3
			c0.6-0.8,1.1-1.5,1.5-2.2s0.5-1.3,0.4-1.6c0,0,0-0.1,0,0c0,0,0.1,0.1,0-0.1l-0.1-0.2l0,0l0,0c-0.1-0.1,0.1,0.2,0.1,0.1l0,0
			c0,0,0,0,0-0.1c-0.1-0.1-0.2-0.2-0.4-0.2c-0.4-0.2-1.1-0.3-1.8-0.2h-0.2l-0.3,0.1c-0.2,0-0.4,0.1-0.6,0.2
			c-0.4,0.1-0.8,0.3-1.2,0.5c-1.6,0.8-3.2,2-4.7,3.2c-3,2.4-5.6,5-7.7,7.4c-1,1.2-2,2.3-2.8,3.4c-0.8,1-1.5,2-2,2.7
			C729.3,167.9,728.7,168.8,728.7,168.8z"/>
		<path class="st1" d="M724.8,170.9c0,0-0.3,0-0.8-0.1s-1.3-0.2-2.2-0.3c-0.9-0.2-2.1-0.4-3.4-0.8c-1.3-0.4-2.8-0.9-4.3-1.5
			c-3.1-1.3-6.6-3.3-9.9-5.9c-0.8-0.7-1.6-1.4-2.5-2.1c-0.8-0.8-1.6-1.6-2.4-2.7c-0.4-0.5-0.7-1.1-1-1.6c-0.2-0.3-0.3-0.6-0.4-0.9
			l-0.2-0.5l-0.2-0.6c-0.4-1.4-0.5-2.9,0-4.6c0.3-0.8,0.7-1.7,1.4-2.4c0.2-0.2,0.4-0.3,0.6-0.5l0.1-0.1l0.2-0.1l0.2-0.1
			c0,0,0.4-0.2,0.7-0.3s0.5-0.2,0.7-0.3c0.9-0.3,1.8-0.3,2.6-0.1c0.8,0.1,1.5,0.3,2.1,0.6c1.2,0.5,2.3,1.2,3.2,1.8
			c0.8,0.6,1.8,1.3,2.6,1.9c3.3,2.7,5.9,5.5,8.1,8c2.1,2.5,3.7,4.8,4.8,6.3c1.1,1.6,1.7,2.5,1.7,2.5s-0.9-0.6-2.4-1.8
			s-3.6-2.9-6.1-4.9s-5.4-4.4-8.7-6.5c-0.8-0.5-1.6-1-2.5-1.6c-0.9-0.5-1.6-0.9-2.3-1.2s-1.4-0.3-1.6-0.2c0,0-0.1,0,0,0
			c0,0,0.1-0.1-0.1,0l-0.2,0.1l0,0l0,0c-0.1,0.1,0.1-0.1,0.1-0.1l0,0c0,0,0,0-0.1,0.1s-0.1,0.2-0.2,0.4c-0.1,0.4-0.1,1.1,0,1.8
			l0.1,0.2l0.1,0.3c0.1,0.2,0.2,0.4,0.2,0.6c0.2,0.4,0.4,0.7,0.6,1.1c1,1.5,2.4,2.9,3.8,4.2c2.8,2.7,5.7,5,8.3,6.7
			c1.3,0.9,2.6,1.7,3.7,2.3c1.1,0.6,2.1,1.2,3,1.7C723.8,170.4,724.8,170.9,724.8,170.9z"/>
		<circle class="st1" cx="726.9" cy="168.4" r="6.1"/>
		<path class="st1" d="M730.5,166.4c0,0,0.2,0.2,0.6,0.7c0.4,0.4,1,1.1,1.8,1.9c0.8,0.8,1.8,1.6,3,2.6c1.2,0.9,2.7,1.8,4.3,2.5
			c0.4,0.2,0.9,0.4,1.2,0.5c0.2,0.1,0.5,0.2,0.7,0.3s0.4,0.1,0.6,0.2c0.9,0.2,1.9,0.4,2.8,0.5c2,0.2,4,0.1,6-0.5
			c0.5-0.1,1-0.3,1.4-0.5c0.5-0.2,1-0.5,1.3-0.7c0.9-0.5,1.6-1.2,2.2-1.9c0.3-0.4,0.6-0.7,0.8-1.1c0.1-0.2,0.2-0.4,0.3-0.6
			c0-0.1,0.1-0.2,0.1-0.3v-0.2v-0.1l0,0l0,0c0,0,0,0.2,0,0.1l0.1-0.5c0-0.1,0-0.1,0-0.2c0-0.1,0-0.4,0-0.6c0-0.4-0.1-0.8-0.2-1.2
			c-0.3-0.8-0.7-1.4-1.2-1.8c-0.1-0.1-0.3-0.2-0.4-0.2h-0.1l0,0c0.1,0-0.2-0.1,0.2,0h-0.1l-0.2-0.1l-0.2-0.1l0,0c0,0-0.2,0-0.3,0
			s-0.3,0-0.5,0.1c-0.6,0.2-1.3,0.6-1.5,1c-0.1,0.2-0.2,0.4-0.2,0.6c0,0,0,0,0,0.1l0,0l0,0c0,0,0,0.1,0-0.1l0,0
			c0,0.1,0.1,0.4,0.1,0.3l0,0v0.1c0,0.1,0.1,0.1,0.1,0.2c0.2,0.6,0.8,1.2,1.6,1.6c0.2,0.1,0.4,0.2,0.5,0.3c0.2,0.1,0.6,0.3,0.7,0.3
			c0.3,0.1,0.8,0.3,1.3,0.4c1.8,0.4,3.6,0.2,5.2-0.4c0.4-0.2,0.8-0.3,1.1-0.5c0.2-0.1,0.3-0.2,0.5-0.3s0.4-0.3,0.5-0.4
			c0.6-0.4,1.2-1,1.6-1.5c0.9-1.1,1.5-2.3,1.9-3.3c0.3-1,0.5-1.9,0.5-2.5c0.1-0.6,0.1-0.9,0.1-0.9s0,0.1,0.1,0.2
			c0,0.2,0.1,0.4,0.2,0.7c0.1,0.6,0.3,1.5,0.1,2.7c-0.1,1.2-0.4,2.6-1.2,4.1c-0.4,0.8-0.9,1.5-1.6,2.3c-0.2,0.2-0.3,0.3-0.5,0.5
			s-0.4,0.3-0.6,0.5c-0.4,0.3-0.9,0.6-1.3,0.9c-1.9,1.1-4.3,1.8-6.9,1.5c-0.7-0.1-1.3-0.1-2-0.4c-0.4-0.1-0.6-0.2-0.9-0.3
			c-0.4-0.2-0.7-0.3-1-0.4c-1.3-0.6-2.6-1.6-3.5-3.2c-0.1-0.2-0.2-0.4-0.3-0.6l-0.1-0.3l-0.1-0.4c-0.1-0.3-0.1-0.4-0.1-0.6v-0.2
			v-0.1v-0.2v-0.4c0-1,0.2-2.1,0.7-2.9c0.9-1.7,2.5-2.8,4.3-3.4c0.5-0.1,0.9-0.2,1.4-0.3c0.5,0,0.9-0.1,1.6,0l0.4,0.1l0.2,0.1
			l0.2,0.1h0.1c0.3,0.1,0.1,0,0.2,0.1l0,0l0.2,0.1c0.5,0.2,0.9,0.4,1.3,0.7c1.6,1.1,2.7,2.6,3.3,4.3c0.3,0.8,0.4,1.7,0.5,2.6
			c0,0.4,0,0.9,0,1.3c0,0.2-0.1,0.5-0.1,0.7l-0.1,0.5v0.2v0.1v0.2l-0.1,0.3c-0.1,0.2-0.1,0.4-0.2,0.6c-0.2,0.4-0.3,0.8-0.5,1.1
			c-0.4,0.7-0.9,1.4-1.4,2c-2.1,2.4-4.9,3.7-7.6,4.2c-2.7,0.6-5.4,0.4-7.7-0.1c-1.2-0.3-2.3-0.6-3.3-1.1c-0.3-0.1-0.5-0.2-0.8-0.4
			c-0.2-0.1-0.4-0.2-0.7-0.4c-0.5-0.3-0.9-0.5-1.4-0.8c-1.7-1.1-3.1-2.4-4.2-3.6c-1.1-1.2-1.9-2.4-2.5-3.3c-0.6-1-1-1.8-1.3-2.3
			C730.7,166.7,730.5,166.4,730.5,166.4z"/>
		<path class="st1" d="M720.9,169.9c0,0-0.2,0-0.6-0.1c-0.4-0.1-1-0.1-1.7-0.1s-1.6,0.1-2.5,0.4c-0.9,0.3-1.9,0.7-2.9,1.2
			c-1,0.6-1.9,1.4-2.8,2.3c-0.9,0.9-1.8,2-2.6,3.3c-0.3,0.5-0.7,1.2-1,1.8s-0.6,1.3-0.7,1.9c-0.4,1.3-0.5,2.6-0.3,3.8
			c0.1,0.6,0.3,1.2,0.5,1.6c0.1,0.2,0.2,0.4,0.3,0.5l0.3,0.4c0.2,0.3,0.4,0.6,0.7,0.9c0.5,0.6,1.1,1.4,1.6,2.2
			c0.1,0.2,0.3,0.4,0.4,0.7c0.1,0.1,0.1,0.2,0.2,0.4l0.2,0.5c0.1,0.2,0.1,0.3,0.2,0.6c0.1,0.3,0.2,0.7,0.2,0.9
			c0.3,2.2-0.2,4.2-1.3,5.8c-0.5,0.8-1.2,1.5-1.9,2l-0.6,0.4l0,0l-0.1,0.1l0,0h-0.1l-0.1,0.1l-0.2,0.1c-0.3,0.1-0.8,0.4-1.2,0.4
			c-1.5,0.4-2.8,0.3-3.9,0.2c-1.1-0.2-2-0.5-2.7-0.7s-1.3-0.5-1.6-0.7c-0.4-0.2-0.6-0.3-0.6-0.3s0.9,0,2.4,0c0.7,0,1.6-0.1,2.6-0.2
			c1-0.2,2-0.4,2.9-0.9c0.3-0.1,0.3-0.2,0.6-0.4l0.2-0.2l0.1-0.1h0.1l0,0c0,0-0.1,0.1-0.1,0l0,0l0.3-0.3c0.3-0.4,0.6-0.8,0.8-1.3
			c0.4-1,0.5-2.1,0.2-3.1c0-0.1-0.1-0.2-0.1-0.3l-0.2-0.5c0,0,0.1,0.2,0,0.1l0,0l0,0l0,0v-0.1c0-0.1-0.1-0.1-0.1-0.2
			c-0.1-0.1-0.2-0.2-0.2-0.4c-0.4-0.5-0.9-1-1.4-1.7c-0.3-0.3-0.6-0.7-0.9-1.1c-0.2-0.2-0.3-0.4-0.5-0.6c-0.2-0.3-0.3-0.4-0.4-0.6
			c-0.6-1.1-0.9-2.1-1.2-3.2c-0.4-2.2,0-4.3,0.6-6.2c0.3-0.9,0.8-1.8,1.2-2.6c0.5-0.8,1-1.6,1.6-2.3c1.1-1.3,2.4-2.5,3.7-3.4
			s2.7-1.6,4.1-2.1c1.4-0.4,2.7-0.5,3.8-0.5s2.1,0.3,2.8,0.6s1.3,0.6,1.6,0.8C720.7,169.8,720.9,169.9,720.9,169.9z"/>
		<line class="st0" x1="725.8" y1="170.9" x2="725.8" y2="279.7"/>
	</g>
	<g id="_x30_9">
		<circle class="st1" cx="653.6" cy="119.3" r="21.3"/>
		<path class="st4" d="M656.1,84.3h-4.9c-2.8,0-5.1,2.3-5.1,5.1V99h15.1v-9.5C661.1,86.6,658.9,84.3,656.1,84.3z"/>
		<line class="st0" x1="653.6" y1="84.3" x2="653.6" y2="0"/>
		<circle class="st1" cx="653.6" cy="50.4" r="8.8"/>
		<circle class="st1" cx="653.6" cy="26.4" r="5.1"/>
	</g>
	<g id="_x30_8">
		<line class="st0" x1="572.3" y1="32" x2="572.3" y2="0"/>
		<path class="st5" d="M572.3,133.9L572.3,133.9c-1.2,0-2.3-1-2.3-2.3V36.3c0-1.2,1-2.3,2.3-2.3l0,0c1.2,0,2.3,1,2.3,2.3v95.3
			C574.6,132.8,573.5,133.9,572.3,133.9z"/>
		<path class="st5" d="M572,52.5L572,52.5c-0.8,0.5-1.8,0.2-2.2-0.5l-7.7-12.6c-0.5-0.8-0.2-1.8,0.5-2.2l0,0
			c0.8-0.5,1.8-0.2,2.2,0.5l7.7,12.6C573,51.1,572.7,52.1,572,52.5z"/>
		<path class="st5" d="M572.6,52.5L572.6,52.5c0.8,0.5,1.8,0.2,2.2-0.5l7.7-12.6c0.5-0.8,0.2-1.8-0.5-2.2l0,0
			c-0.8-0.5-1.8-0.2-2.2,0.5l-7.7,12.6C571.6,51.1,571.8,52.1,572.6,52.5z"/>
		<path class="st5" d="M572,62.6L572,62.6c-0.8,0.5-1.8,0.2-2.2-0.5l-7.7-12.6c-0.5-0.8-0.2-1.8,0.5-2.2l0,0
			c0.8-0.5,1.8-0.2,2.2,0.5l7.7,12.6C573,61.2,572.7,62.2,572,62.6z"/>
		<path class="st5" d="M572.6,62.6L572.6,62.6c0.8,0.5,1.8,0.2,2.2-0.5l7.7-12.6c0.5-0.8,0.2-1.8-0.5-2.2l0,0
			c-0.8-0.5-1.8-0.2-2.2,0.5l-7.7,12.6C571.6,61.2,571.8,62.2,572.6,62.6z"/>
		<path class="st5" d="M572,114L572,114c-0.8-0.5-1.8-0.2-2.2,0.5l-7.7,12.6c-0.5,0.8-0.2,1.8,0.5,2.2l0,0c0.8,0.5,1.8,0.2,2.2-0.5
			l7.7-12.6C573,115.4,572.7,114.4,572,114z"/>
		<path class="st5" d="M572.6,114L572.6,114c0.8-0.5,1.8-0.2,2.2,0.5l7.7,12.6c0.5,0.8,0.2,1.8-0.5,2.2l0,0
			c-0.8,0.5-1.8,0.2-2.2-0.5l-7.7-12.6C571.6,115.4,571.8,114.4,572.6,114z"/>
		<path class="st5" d="M572,103.9L572,103.9c-0.8-0.5-1.8-0.2-2.2,0.5l-7.7,12.6c-0.5,0.8-0.2,1.8,0.5,2.2l0,0
			c0.8,0.5,1.8,0.2,2.2-0.5l7.7-12.6C573,105.3,572.7,104.4,572,103.9z"/>
		<path class="st5" d="M572.6,103.9L572.6,103.9c0.8-0.5,1.8-0.2,2.2,0.5l7.7,12.6c0.5,0.8,0.2,1.8-0.5,2.2l0,0
			c-0.8,0.5-1.8,0.2-2.2-0.5l-7.7-12.6C571.6,105.3,571.8,104.4,572.6,103.9z"/>
		<path class="st5" d="M608.1,119.7L608.1,119.7c-0.9,0.9-2.3,0.9-3.2,0l-67.4-67.4c-0.9-0.9-0.9-2.3,0-3.2l0,0
			c0.9-0.9,2.3-0.9,3.2,0l67.4,67.4C608.9,117.4,608.9,118.8,608.1,119.7z"/>
		<path class="st5" d="M550.3,62.4L550.3,62.4c-0.2,0.9-1.1,1.4-2,1.2L534,60.1c-0.9-0.2-1.4-1.1-1.2-2l0,0c0.2-0.9,1.1-1.4,2-1.2
			l14.3,3.5C550,60.7,550.6,61.6,550.3,62.4z"/>
		<path class="st5" d="M550.8,62L550.8,62c0.9-0.2,1.4-1.1,1.2-2l-3.5-14.3c-0.2-0.9-1.1-1.4-2-1.2l0,0c-0.9,0.2-1.4,1.1-1.2,2
			l3.5,14.3C549,61.7,549.9,62.2,550.8,62z"/>
		<path class="st5" d="M557.5,69.6L557.5,69.6c-0.2,0.9-1.1,1.4-2,1.2l-14.3-3.5c-0.9-0.2-1.4-1.1-1.2-2l0,0c0.2-0.9,1.1-1.4,2-1.2
			l14.3,3.5C557.2,67.8,557.7,68.7,557.5,69.6z"/>
		<path class="st5" d="M557.9,69.1L557.9,69.1c0.9-0.2,1.4-1.1,1.2-2l-3.5-14.3c-0.2-0.9-1.1-1.4-2-1.2l0,0c-0.9,0.2-1.4,1.1-1.2,2
			l3.5,14.3C556.2,68.8,557.1,69.3,557.9,69.1z"/>
		<path class="st5" d="M593.8,105.9L593.8,105.9c-0.9,0.2-1.4,1.1-1.2,2l3.5,14.3c0.2,0.9,1.1,1.4,2,1.2l0,0c0.9-0.2,1.4-1.1,1.2-2
			l-3.5-14.3C595.5,106.2,594.7,105.7,593.8,105.9z"/>
		<path class="st5" d="M594.2,105.4L594.2,105.4c0.2-0.9,1.1-1.4,2-1.2l14.3,3.5c0.9,0.2,1.4,1.1,1.2,2l0,0c-0.2,0.9-1.1,1.4-2,1.2
			l-14.3-3.5C594.6,107.2,594,106.3,594.2,105.4z"/>
		<path class="st5" d="M586.7,98.8L586.7,98.8c-0.9,0.2-1.4,1.1-1.2,2L589,115c0.2,0.9,1.1,1.4,2,1.2l0,0c0.9-0.2,1.4-1.1,1.2-2
			l-3.5-14.3C588.4,99.1,587.5,98.5,586.7,98.8z"/>
		<path class="st5" d="M587.1,98.3L587.1,98.3c0.2-0.9,1.1-1.4,2-1.2l14.3,3.5c0.9,0.2,1.4,1.1,1.2,2l0,0c-0.2,0.9-1.1,1.4-2,1.2
			l-14.3-3.5C587.4,100.1,586.9,99.2,587.1,98.3z"/>
		<path class="st5" d="M622.2,83.9L622.2,83.9c0,1.2-1,2.3-2.3,2.3h-95.3c-1.2,0-2.3-1-2.3-2.3l0,0c0-1.2,1-2.3,2.3-2.3h95.3
			C621.2,81.7,622.2,82.7,622.2,83.9z"/>
		<path class="st5" d="M540.9,84.3L540.9,84.3c0.5,0.8,0.2,1.8-0.5,2.2l-12.6,7.7c-0.8,0.5-1.8,0.2-2.2-0.5l0,0
			c-0.5-0.8-0.2-1.8,0.5-2.2l12.6-7.7C539.4,83.3,540.4,83.5,540.9,84.3z"/>
		<path class="st5" d="M540.9,83.6L540.9,83.6c0.5-0.8,0.2-1.8-0.5-2.2l-12.6-7.7c-0.8-0.5-1.8-0.2-2.2,0.5l0,0
			c-0.5,0.8-0.2,1.8,0.5,2.2l12.6,7.7C539.4,84.6,540.4,84.4,540.9,83.6z"/>
		<path class="st5" d="M551,84.3L551,84.3c0.5,0.8,0.2,1.8-0.5,2.2l-12.6,7.7c-0.8,0.5-1.8,0.2-2.2-0.5l0,0
			c-0.5-0.8-0.2-1.8,0.5-2.2l12.6-7.7C549.5,83.3,550.5,83.5,551,84.3z"/>
		<path class="st5" d="M551,83.6L551,83.6c0.5-0.8,0.2-1.8-0.5-2.2l-12.6-7.7c-0.8-0.5-1.8-0.2-2.2,0.5l0,0
			c-0.5,0.8-0.2,1.8,0.5,2.2l12.6,7.7C549.5,84.6,550.5,84.4,551,83.6z"/>
		<path class="st5" d="M602.3,84.3L602.3,84.3c-0.5,0.8-0.2,1.8,0.5,2.2l12.6,7.7c0.8,0.5,1.8,0.2,2.2-0.5l0,0
			c0.5-0.8,0.2-1.8-0.5-2.2l-12.6-7.7C603.8,83.3,602.8,83.5,602.3,84.3z"/>
		<path class="st5" d="M602.3,83.6L602.3,83.6c-0.5-0.8-0.2-1.8,0.5-2.2l12.6-7.7c0.8-0.5,1.8-0.2,2.2,0.5l0,0
			c0.5,0.8,0.2,1.8-0.5,2.2l-12.6,7.7C603.8,84.6,602.8,84.4,602.3,83.6z"/>
		<path class="st5" d="M592.2,84.3L592.2,84.3c-0.5,0.8-0.2,1.8,0.5,2.2l12.6,7.7c0.8,0.5,1.8,0.2,2.2-0.5l0,0
			c0.5-0.8,0.2-1.8-0.5-2.2l-12.6-7.7C593.7,83.3,592.7,83.5,592.2,84.3z"/>
		<path class="st5" d="M592.2,83.6L592.2,83.6c-0.5-0.8-0.2-1.8,0.5-2.2l12.6-7.7c0.8-0.5,1.8-0.2,2.2,0.5l0,0
			c0.5,0.8,0.2,1.8-0.5,2.2l-12.6,7.7C593.7,84.6,592.7,84.4,592.2,83.6z"/>
		<path class="st5" d="M608.1,48.2L608.1,48.2c0.9,0.9,0.9,2.3,0,3.2l-67.4,67.4c-0.9,0.9-2.3,0.9-3.2,0l0,0c-0.9-0.9-0.9-2.3,0-3.2
			l67.4-67.4C605.7,47.3,607.2,47.3,608.1,48.2z"/>
		<path class="st5" d="M550.8,105.9L550.8,105.9c0.9,0.2,1.4,1.1,1.2,2l-3.5,14.3c-0.2,0.9-1.1,1.4-2,1.2l0,0
			c-0.9-0.2-1.4-1.1-1.2-2l3.5-14.3C549,106.2,549.9,105.7,550.8,105.9z"/>
		<path class="st5" d="M550.3,105.4L550.3,105.4c-0.2-0.9-1.1-1.4-2-1.2l-14.3,3.5c-0.9,0.2-1.4,1.1-1.2,2l0,0
			c0.2,0.9,1.1,1.4,2,1.2l14.3-3.5C550,107.2,550.6,106.3,550.3,105.4z"/>
		<path class="st5" d="M557.9,98.8L557.9,98.8c0.9,0.2,1.4,1.1,1.2,2l-3.5,14.3c-0.2,0.9-1.1,1.4-2,1.2l0,0c-0.9-0.2-1.4-1.1-1.2-2
			l3.5-14.3C556.2,99.1,557.1,98.5,557.9,98.8z"/>
		<path class="st5" d="M557.5,98.3L557.5,98.3c-0.2-0.9-1.1-1.4-2-1.2l-14.3,3.5c-0.9,0.2-1.4,1.1-1.2,2l0,0c0.2,0.9,1.1,1.4,2,1.2
			l14.3-3.5C557.2,100.1,557.7,99.2,557.5,98.3z"/>
		<path class="st5" d="M594.2,62.4L594.2,62.4c0.2,0.9,1.1,1.4,2,1.2l14.3-3.5c0.9-0.2,1.4-1.1,1.2-2l0,0c-0.2-0.9-1.1-1.4-2-1.2
			l-14.3,3.5C594.6,60.7,594,61.6,594.2,62.4z"/>
		<path class="st5" d="M593.8,62L593.8,62c-0.9-0.2-1.4-1.1-1.2-2l3.5-14.3c0.2-0.9,1.1-1.4,2-1.2l0,0c0.9,0.2,1.4,1.1,1.2,2
			l-3.5,14.3C595.5,61.7,594.7,62.2,593.8,62z"/>
		<path class="st5" d="M587.1,69.6L587.1,69.6c0.2,0.9,1.1,1.4,2,1.2l14.3-3.5c0.9-0.2,1.4-1.1,1.2-2l0,0c-0.2-0.9-1.1-1.4-2-1.2
			l-14.3,3.5C587.4,67.8,586.9,68.7,587.1,69.6z"/>
		<path class="st5" d="M586.7,69.1L586.7,69.1c-0.9-0.2-1.4-1.1-1.2-2l3.5-14.3c0.2-0.9,1.1-1.4,2-1.2l0,0c0.9,0.2,1.4,1.1,1.2,2
			l-3.5,14.3C588.4,68.8,587.5,69.3,586.7,69.1z"/>
		<circle class="st5" cx="572.3" cy="83.9" r="8.4"/>
		<path class="st5" d="M572.3,107.6c-13,0-23.6-10.6-23.6-23.6s10.6-23.6,23.6-23.6S595.9,71,595.9,84S585.3,107.6,572.3,107.6z
			 M572.3,63.6c-11.2,0-20.3,9.1-20.3,20.3s9.1,20.3,20.3,20.3s20.3-9.1,20.3-20.3S583.5,63.6,572.3,63.6z"/>
	</g>
	<g id="_x30_7">
		<line class="st0" x1="488.8" y1="169.3" x2="488.8" y2="0"/>
		<circle class="st1" cx="488.8" cy="124.8" r="8.8"/>
		<circle class="st1" cx="488.8" cy="100.7" r="5.1"/>
		<polygon class="st1" points="533.6,298.8 451.5,299 451.2,210.8 492.2,177.3 533.4,210.6 		"/>

			<rect x="510.9" y="169" transform="matrix(1 -2.528510e-003 2.528510e-003 1 -0.4582 1.3062)" class="st1" width="11" height="25.7"/>
		<path class="st6" d="M528.1,299.1C528.1,299,528.1,299,528.1,299.1l-0.1-31.9c0-6.3-5.1-11.4-11.4-11.4l0,0
			c-5.6,0-10.1,4.5-10.1,10.1l0.1,33.1v0.1L528.1,299.1z"/>

			<rect x="461.8" y="256.6" transform="matrix(1 -2.528649e-003 2.528649e-003 1 -0.6834 1.2149)" class="st4" width="36.7" height="28.5"/>

			<rect x="464.9" y="259.7" transform="matrix(1 -2.528905e-003 2.528905e-003 1 -0.6828 1.2148)" class="st6" width="30.3" height="21.8"/>
		<path class="st5" d="M500.1,289.2l-40.7,0.1c-1.3,0-2.3-1-2.3-2.3v-1.3c0-1.3,1-2.3,2.3-2.3l40.7-0.1c1.3,0,2.3,1,2.3,2.3v1.3
			C502.4,288.1,501.4,289.2,500.1,289.2z"/>

			<rect x="479.8" y="258.6" transform="matrix(1 -2.579043e-003 2.579043e-003 1 -0.6964 1.2403)" class="st4" width="1.6" height="24.1"/>

			<rect x="461" y="212.7" transform="matrix(1 -2.528649e-003 2.528649e-003 1 -0.5723 1.2127)" class="st4" width="36.7" height="28.5"/>

			<rect x="464.2" y="215.9" transform="matrix(1 -2.528904e-003 2.528904e-003 1 -0.572 1.2128)" class="st6" width="30.3" height="21.8"/>
		<path class="st5" d="M499.4,245.3l-40.7,0.1c-1.3,0-2.3-1-2.3-2.3v-1.3c0-1.3,1-2.3,2.3-2.3l40.7-0.1c1.3,0,2.3,1,2.3,2.3v1.3
			C501.7,244.3,500.6,245.3,499.4,245.3z"/>

			<rect x="479" y="214.8" transform="matrix(1 -2.517638e-003 2.517638e-003 1 -0.5696 1.2086)" class="st4" width="1.6" height="24.1"/>

			<rect x="510.9" y="212.7" transform="matrix(1 -2.530243e-003 2.530243e-003 1 -0.573 1.3104)" class="st4" width="13.5" height="28.8"/>

			<rect x="514" y="215.6" transform="matrix(1 -2.523012e-003 2.523012e-003 1 -0.5715 1.3069)" class="st6" width="7.5" height="23.1"/>
		<path class="st5" d="M525.5,245.3h-15.4c-1.3,0-2.3-1-2.3-2.3v-1.3c0-1.3,1-2.3,2.3-2.3h15.4c1.3,0,2.3,1,2.3,2.3v1.3
			C527.8,244.2,526.7,245.3,525.5,245.3z"/>
		<path class="st5" d="M490.1,182.8c-9.2,9.3-12.9,15.9-23,24.2c-3.2,2.7-16.6,12.1-20.8,12.7c-4.2,0.5-5.2-6.7-5.5-10.9
			c-0.4-5.6,6.4-8.4,10.6-12.2c5.9-5.2,7.9-14.4,14.9-17.8c2.4-1.2,5.2-1.5,7.7-2.7c3.6-1.7,6.3-5,10-6.5c4.8-2,10.4-0.6,14.9,2
			s8.3,6.2,12.5,9.2c5.4,3.8,11.5,6.4,16.8,10.3c5.3,3.9,9.9,9.5,10.4,16c0.2,3.7-1.3,7.9-4.8,9.3c-2.9,1.1-6.1,0-8.7-1.6
			c-6.6-4.1-11-11.7-18.5-13.8c-15.3-4.3-13.8-15-16.9-16.8"/>

			<rect x="449.7" y="291.2" transform="matrix(1 -2.529053e-003 2.529053e-003 1 -0.745 1.2101)" class="st4" width="56.9" height="8"/>

			<rect x="528.1" y="290" transform="matrix(1 -2.529365e-003 2.529365e-003 1 -0.7433 1.3457)" class="st4" width="7.2" height="9.1"/>
		<path class="st5" d="M523.1,170.8h-13.6c-1,0-1.8-0.8-1.9-1.8v-1c0-1,0.8-1.8,1.8-1.9H523c1,0,1.8,0.8,1.9,1.8v1
			C524.9,170,524.1,170.8,523.1,170.8z"/>
	</g>
	<g id="_x30_6">
		<circle class="st2" cx="423.1" cy="119.3" r="21.3"/>
		<path class="st4" d="M425.6,84.3h-4.9c-2.8,0-5.1,2.3-5.1,5.1V99h15.1v-9.5C430.7,86.6,428.4,84.3,425.6,84.3z"/>
		<line class="st0" x1="423.1" y1="84.3" x2="423.1" y2="0"/>
		<circle class="st2" cx="423.1" cy="50.4" r="8.8"/>
		<circle class="st2" cx="423.1" cy="26.4" r="5.1"/>
	</g>
	<g id="_x30_5">
		<line class="st0" x1="356" y1="229.4" x2="356" y2="0"/>
		<circle class="st1" cx="356" cy="195.2" r="8.8"/>
		<circle class="st1" cx="356" cy="171.1" r="5.1"/>
		<path class="st7" d="M337.3,274.9c-0.3,0-0.6-0.2-0.8-0.3c-0.8-0.6-1-1.8-0.4-2.6c5.9-8.1,14.6-13.3,22.4-17.4
			c2-1.1,4-2.1,6.1-3.1c6.1-3.1,12.4-6.2,17.9-10.3c15.3-11.4,24.2-29.6,32.1-45.7c0.5-0.9,1.6-1.3,2.5-0.9c0.9,0.5,1.3,1.6,0.9,2.5
			c-8,16.5-17.2,35.2-33.2,47.1c-5.7,4.3-12.2,7.5-18.4,10.6c-2,1-4,2-6,3.1c-7.3,3.9-15.6,8.8-21.1,16.3
			C338.7,274.7,338,275,337.3,274.9z"/>
		<path class="st7" d="M352.7,259.4c2.7-1.2,3.9-4.5,3.7-7.4c-0.2-2.9-1.5-5.7-2.5-8.4c-1.7-4.3-2.9-8.8-2.9-13.4
			c0-4.6,1.2-9.3,4.1-12.9c-0.6,2.1,2.1,8.9,5.6,17.1c5.8,13.7-1.7,19.8-5.4,22.8"/>
		<path class="st7" d="M353.4,259.3c2.3-1.8,5.8-1.4,8.3,0.2c2.5,1.5,4.3,4,6.3,6.2c3,3.5,6.4,6.7,10.5,8.8c4,2.2,8.8,3.2,13.3,2.4
			c-2.1-0.5-6.9-6-12.5-12.9c-9.4-11.5-18.3-7.7-22.7-5.9"/>
		<path class="st7" d="M366.9,251.8c1.9-1.9,5-1.8,7.4-0.7s4.3,3.1,6.2,4.9c3,2.8,6.4,5.3,10.2,6.8c3.8,1.5,8.1,2,12.1,0.8
			c-1.9-0.2-6.7-4.6-12.5-10.2c-9.6-9.3-17.1-5-20.8-2.9"/>
		<path class="st7" d="M381.6,243.9c1.5-2,4.5-2.4,6.9-1.7s4.5,2.3,6.6,3.8c3.2,2.2,6.8,4.2,10.6,5.1s8,0.8,11.6-0.9
			c-1.8,0.1-7-3.5-13.2-8c-10.3-7.6-16.9-2.5-20.1,0"/>
		<path class="st7" d="M392.6,234c1.3-2,4.1-2.7,6.4-2.2c2.4,0.5,4.4,1.8,6.5,3c3.3,1.8,6.8,3.3,10.5,3.8s7.6,0,10.8-1.9
			c-1.7,0.2-6.9-2.7-13.2-6.4c-10.4-6.2-16.2-0.8-19,1.8"/>
		<path class="st7" d="M412.5,206.5c-1.2-2.1,1.3-4.7,2.9-6.6c1.5-1.8,3.7-3,5.7-4.3c3.2-2,6.1-4.4,8.4-7.4c2.2-3,3.7-6.7,3.5-10.4
			c-0.6,1.6-5.6,4.8-11.9,8.6c-10.4,6.2-8.4,13.8-7.4,17.6"/>
		<path class="st7" d="M404.3,219.6c0.9-1.9,3.2-2.8,5.3-2.6c2.1,0.1,4,1.1,6,1.9c3,1.2,6.2,2.1,9.5,2.2c3.3,0,6.6-0.8,9.2-2.8
			c-1.5,0.4-6.3-1.5-12.2-4.1c-9.8-4.2-14.1,1.1-16.3,3.7"/>
		<path class="st7" d="M410.8,204.8c0.8-1.7,2.9-2.5,4.8-2.4s3.6,1,5.4,1.7c2.7,1.1,5.6,1.9,8.6,1.9c2.9,0,6-0.7,8.3-2.5
			c-1.3,0.3-5.7-1.4-11-3.7c-8.8-3.8-12.7,1-14.7,3.4"/>
		<path class="st7" d="M366.8,253c2.5-1.1,3.6-4.2,3.5-6.9c-0.2-2.7-1.4-5.3-2.4-7.8c-1.6-4-2.7-8.2-2.7-12.4s1.1-8.6,3.8-12
			c-0.5,1.9,1.9,8.2,5.2,15.9c5.4,12.8-1.6,18.4-5,21.2"/>
		<path class="st7" d="M381.3,244.5c2.2-1.2,3.1-4,2.8-6.5c-0.3-2.5-1.6-4.8-2.6-7c-1.7-3.5-3-7.3-3.3-11.2s0.5-8,2.7-11.2
			c-0.4,1.8,2.3,7.4,5.7,14.2c5.7,11.4-0.3,17-3.3,19.7"/>
		<path class="st7" d="M393.3,234.1c1.9-1,2.6-3.5,2.4-5.6c-0.3-2.1-1.4-4.1-2.3-6c-1.4-3-2.5-6.3-2.8-9.6c-0.2-3.4,0.4-6.8,2.3-9.6
			c-0.3,1.5,2,6.4,4.9,12.2c4.9,9.8-0.3,14.6-2.8,16.9"/>
		<path class="st7" d="M402.4,222.1c1.6-1.1,2-3.3,1.5-5.1c-0.4-1.8-1.6-3.4-2.5-5c-1.5-2.5-2.8-5.2-3.3-8.1c-0.5-2.9-0.3-6,1.1-8.6
			c-0.1,1.4,2.3,5.4,5.4,10.2c5.2,8,1.1,12.7-0.9,15"/>
		<path class="st7" d="M409.6,207.9c1.6-1.1,2-3.3,1.5-5.1c-0.4-1.8-1.6-3.4-2.5-5c-1.5-2.5-2.8-5.2-3.3-8.1c-0.5-2.9-0.3-6,1.1-8.6
			c-0.1,1.4,2.3,5.4,5.4,10.2c5.2,8,1.1,12.7-0.9,15"/>

			<rect x="368.6" y="314.8" transform="matrix(0.1289 -0.9917 0.9917 0.1289 36.773 674.4601)" class="st1" width="67.4" height="3"/>
		<ellipse transform="matrix(0.1294 -0.9916 0.9916 0.1294 -0.2897 699.0659)" class="st5" cx="398" cy="349.7" rx="9.1" ry="9.1"/>

			<rect x="410.2" y="282.4" transform="matrix(0.9954 -9.585517e-002 9.585517e-002 0.9954 -28.4042 40.9153)" class="st1" width="3" height="67.4"/>
		<ellipse transform="matrix(0.1294 -0.9916 0.9916 0.1294 8.364 723.4368)" class="st5" cx="416.2" cy="357" rx="9.1" ry="9.1"/>
		<path class="st1" d="M354.8,375.9l-59.3-7.7c-17.4-2.3-29.7-18.3-27.5-35.7l0.3-2.6c2.3-17.4,18.3-29.7,35.7-27.5l59.3,7.7
			c17.4,2.3,29.7,18.3,27.5,35.7l-0.3,2.6C388.3,365.8,372.2,378.2,354.8,375.9z"/>
		<path class="st1" d="M408.8,277.2l-16.2,70.6c-3.9,17.1-21.1,27.8-38.2,23.9l-11.9-2.7c-17.1-3.9-27.8-21.1-23.9-38.2l16.2-70.6
			c3.9-17.1,21.1-27.8,38.2-23.9l11.9,2.7C401.9,242.9,412.7,260.1,408.8,277.2z"/>
		<path class="st5" d="M348.3,320.6l-0.4-0.3c-0.4-0.3-0.4-0.8-0.2-1.2l27.5-36.4c0.3-0.4,0.8-0.4,1.2-0.2l0.4,0.3
			c0.4,0.3,0.4,0.8,0.2,1.2l-27.5,36.4C349.2,320.8,348.7,320.8,348.3,320.6z"/>
		<g>
			<path class="st5" d="M371.4,289.6h-0.3c-0.3,0-0.6-0.3-0.5-0.7l0.7-7.3c0-0.3,0.3-0.6,0.7-0.5h0.3c0.3,0,0.6,0.3,0.5,0.7L372,289
				C372,289.4,371.7,289.6,371.4,289.6z"/>
			<path class="st5" d="M371.4,289.6l0.1,0.3c0.1,0.3,0.5,0.5,0.8,0.3l6.8-2.7c0.3-0.1,0.5-0.5,0.3-0.8l-0.1-0.3
				c-0.1-0.3-0.5-0.5-0.8-0.3l-6.8,2.7C371.4,288.9,371.3,289.3,371.4,289.6z"/>
		</g>
		<g>
			<path class="st5" d="M353.7,313l-0.1-0.3c-0.1-0.3-0.5-0.5-0.8-0.3L346,315c-0.3,0.1-0.5,0.5-0.3,0.8l0.1,0.3
				c0.1,0.3,0.5,0.5,0.8,0.3l6.8-2.7C353.7,313.6,353.9,313.3,353.7,313z"/>
			<path class="st5" d="M353.8,313h0.3c0.3,0,0.6,0.3,0.5,0.7l-0.7,7.3c0,0.3-0.3,0.6-0.7,0.5h-0.3c-0.3,0-0.6-0.3-0.5-0.7l0.7-7.3
				C353.1,313.2,353.4,312.9,353.8,313z"/>
		</g>
		<path class="st5" d="M365.9,325.3l-0.4,0.1c-0.5,0.1-0.9-0.3-1-0.7l-6.3-45.2c-0.1-0.5,0.3-0.9,0.7-1l0.4-0.1
			c0.5-0.1,0.9,0.3,1,0.7l6.3,45.2C366.7,324.8,366.4,325.2,365.9,325.3z"/>
		<g>
			<path class="st5" d="M360.3,287l-0.2,0.2c-0.3,0.2-0.6,0.2-0.9-0.1l-4.6-5.7c-0.2-0.3-0.2-0.6,0.1-0.9l0.2-0.2
				c0.3-0.2,0.6-0.2,0.9,0.1l4.6,5.7C360.6,286.5,360.6,286.8,360.3,287z"/>
			<path class="st5" d="M360.4,287l0.3,0.1c0.3,0.1,0.7,0,0.8-0.3l2.9-6.7c0.1-0.3,0-0.7-0.3-0.8l-0.3-0.1c-0.3-0.1-0.7,0-0.8,0.3
				l-2.9,6.7C359.9,286.6,360,286.9,360.4,287z"/>
		</g>
		<g>
			<path class="st5" d="M364.4,316l-0.3-0.1c-0.3-0.1-0.7,0-0.8,0.3l-2.9,6.7c-0.1,0.3,0,0.7,0.3,0.8l0.3,0.1c0.3,0.1,0.7,0,0.8-0.3
				l2.9-6.7C364.8,316.5,364.7,316.2,364.4,316z"/>
			<path class="st5" d="M364.4,316l0.2-0.2c0.3-0.2,0.6-0.2,0.9,0.1l4.6,5.7c0.2,0.3,0.2,0.6-0.1,0.9l-0.2,0.2
				c-0.3,0.2-0.6,0.2-0.9-0.1l-4.6-5.7C364.1,316.6,364.1,316.3,364.4,316z"/>
		</g>
		<path class="st5" d="M381.4,315.6l-0.3,0.4c-0.3,0.4-0.8,0.4-1.2,0.2l-36.4-27.5c-0.4-0.3-0.4-0.8-0.2-1.2l0.3-0.4
			c0.3-0.4,0.8-0.4,1.2-0.2l36.4,27.5C381.6,314.7,381.7,315.2,381.4,315.6z"/>
		<g>
			<path class="st5" d="M350.4,292.5v0.3c0,0.3-0.3,0.6-0.7,0.5l-7.3-0.7c-0.3,0-0.6-0.3-0.5-0.7v-0.3c0-0.3,0.3-0.6,0.7-0.5
				l7.3,0.7C350.2,291.9,350.4,292.2,350.4,292.5z"/>
			<path class="st5" d="M350.4,292.5l0.3-0.1c0.3-0.1,0.5-0.5,0.3-0.8l-2.7-6.8c-0.1-0.3-0.5-0.5-0.8-0.3l-0.3,0.1
				c-0.3,0.1-0.5,0.5-0.3,0.8l2.7,6.8C349.8,292.5,350.1,292.6,350.4,292.5z"/>
		</g>
		<g>
			<path class="st5" d="M373.8,310.2l-0.3,0.1c-0.3,0.1-0.5,0.5-0.3,0.8l2.7,6.8c0.1,0.3,0.5,0.5,0.8,0.3l0.3-0.1
				c0.3-0.1,0.5-0.5,0.3-0.8l-2.7-6.8C374.5,310.2,374.1,310.1,373.8,310.2z"/>
			<path class="st5" d="M373.8,310.2v-0.3c0-0.3,0.3-0.6,0.7-0.5l7.3,0.7c0.3,0,0.6,0.3,0.5,0.7v0.3c0,0.3-0.3,0.6-0.7,0.5l-7.3-0.7
				C374,310.8,373.8,310.5,373.8,310.2z"/>
		</g>
		<path class="st5" d="M386.1,298l0.1,0.4c0.1,0.5-0.3,0.9-0.7,1l-45.2,6.3c-0.5,0.1-0.9-0.3-1-0.7l-0.1-0.4c-0.1-0.5,0.3-0.9,0.7-1
			l45.2-6.3C385.6,297.2,386,297.5,386.1,298z"/>
		<g>
			<path class="st5" d="M347.9,303.6l0.2,0.2c0.2,0.3,0.2,0.6-0.1,0.9l-5.7,4.6c-0.3,0.2-0.6,0.2-0.9-0.1l-0.2-0.2
				c-0.2-0.3-0.2-0.6,0.1-0.9l5.7-4.6C347.3,303.3,347.7,303.3,347.9,303.6z"/>
			<path class="st5" d="M347.9,303.6l0.1-0.3c0.1-0.3,0-0.7-0.3-0.8l-6.7-2.9c-0.3-0.1-0.7,0-0.8,0.3l-0.1,0.3
				c-0.1,0.3,0,0.7,0.3,0.8l6.7,2.9C347.4,304,347.7,303.9,347.9,303.6z"/>
		</g>
		<g>
			<path class="st5" d="M376.9,299.5l-0.1,0.3c-0.1,0.3,0,0.7,0.3,0.8l6.7,2.9c0.3,0.1,0.7,0,0.8-0.3l0.1-0.3c0.1-0.3,0-0.7-0.3-0.8
				l-6.7-2.9C377.4,299.1,377,299.2,376.9,299.5z"/>
			<path class="st5" d="M376.9,299.5l-0.2-0.2c-0.2-0.3-0.2-0.6,0.1-0.9l5.7-4.6c0.3-0.2,0.6-0.2,0.9,0.1l0.2,0.2
				c0.2,0.3,0.2,0.6-0.1,0.9l-5.7,4.6C377.5,299.8,377.1,299.8,376.9,299.5z"/>
		</g>
		<path class="st5" d="M355.6,310.5c-4.9-3.7-5.9-10.8-2.2-15.7c3.7-4.9,10.8-5.9,15.7-2.2c4.9,3.7,5.9,10.8,2.2,15.7
			C367.6,313.2,360.5,314.2,355.6,310.5z M368.2,293.9c-4.2-3.2-10.3-2.4-13.5,1.9c-3.2,4.2-2.4,10.3,1.9,13.5
			c4.2,3.2,10.3,2.4,13.5-1.9C373.3,303.1,372.4,297.1,368.2,293.9z"/>
		<path class="st8" d="M306.4,369.3l-2-0.3v-0.1l2,0.3V369.3z M307,365.2l-2-0.3l0.3-2l2,0.3L307,365.2z M307.7,359.2l-2-0.3l0.3-2
			l2,0.3L307.7,359.2z M308.5,353.3l-2-0.3l0.3-2l2,0.3L308.5,353.3z M309.3,347.3l-2-0.3l0.3-2l2,0.3L309.3,347.3z M310.1,341.4
			l-2-0.3l0.3-2l2,0.3L310.1,341.4z M310.9,335.4l-2-0.3l0.3-2l2,0.3L310.9,335.4z M311.6,329.5l-2-0.3l0.3-2l2,0.3L311.6,329.5z
			 M312.4,323.5l-2-0.3l0.3-2l2,0.3L312.4,323.5z M313.2,317.6l-2-0.3l0.3-2l2,0.3L313.2,317.6z M314,311.6l-2-0.3l0.3-2l2,0.3
			L314,311.6z M314.7,305.7l-2-0.3l0.3-2l2,0.3L314.7,305.7z"/>
		<path class="st8" d="M339.7,373.1c0.1-0.7,0.1-1.3,0.2-2l2,0.2c-0.1,0.7-0.1,1.3-0.2,2L339.7,373.1z M342.4,367.4l-2-0.3
			c0.1-0.7,0.2-1.3,0.3-2l2,0.3C342.6,366.1,342.5,366.8,342.4,367.4z M343.5,361.6l-2-0.4c0.1-0.7,0.3-1.3,0.4-2l1.9,0.5
			C343.7,360.3,343.6,360.9,343.5,361.6z M344.9,355.8l-1.9-0.5l0.2-0.8c0.1-0.4,0.2-0.7,0.3-1.1l1.9,0.6c-0.1,0.4-0.2,0.7-0.3,1.1
			L344.9,355.8z M346.7,350.2l-1.9-0.7c0.2-0.6,0.5-1.3,0.8-1.9l1.8,0.8C347.1,349,346.9,349.6,346.7,350.2z M349.1,344.9l-1.7-1
			c0.3-0.6,0.7-1.2,1.1-1.8l1.7,1.1C349.8,343.7,349.4,344.3,349.1,344.9z M352.4,340.2l-1.5-1.4c0.4-0.5,0.9-0.9,1.4-1.4l0.1-0.1
			l1.3,1.5l-0.1,0.1C353.3,339.3,352.8,339.7,352.4,340.2z M356.9,336.6l-1-1.7c0.6-0.4,1.2-0.7,1.8-1l0.9,1.8
			C358,335.9,357.4,336.2,356.9,336.6z M362.1,334.1l-0.7-1.9c0.6-0.2,1.3-0.4,2-0.6l0.5,1.9C363.3,333.7,362.7,333.9,362.1,334.1z
			 M367.7,332.7l-0.4-2c0.7-0.1,1.3-0.2,2-0.3l0.3,2C369,332.4,368.4,332.5,367.7,332.7z M373.6,331.8l-0.2-2c0.7-0.1,1.3-0.1,2-0.2
			l0.2,2C374.9,331.7,374.3,331.8,373.6,331.8z M379.5,331.3l-0.1-2c0.7,0,1.3-0.1,2-0.1l0.1,2C380.9,331.3,380.2,331.3,379.5,331.3
			z M392.7,332.9c-0.5-0.3-1.1-0.5-1.7-0.7l0.7-1.9c0.7,0.2,1.4,0.5,2,0.8L392.7,332.9z M385.4,331.2l0.1-2c0.7,0,1.4,0.1,2.1,0.2
			l-0.2,2C386.7,331.3,386.1,331.3,385.4,331.2z"/>
		<path class="st5" d="M411.5,283.8l-82.8-17.6c-2-0.4-3.2-2.4-2.8-4.3l7.6-35.7c0.4-2,2.4-3.2,4.3-2.8l82.8,17.6
			c2,0.4,3.2,2.4,2.8,4.3l-7.6,35.7C415.4,283,413.5,284.2,411.5,283.8z"/>
	</g>
	<g id="_x30_4">
		<line class="st0" x1="286.9" y1="153.5" x2="286.9" y2="0"/>
		<circle class="st1" cx="286.9" cy="118.3" r="8.8"/>
		<circle class="st1" cx="286.9" cy="94.2" r="5.1"/>
		<polygon class="st8" points="248.4,192.7 259.8,223 251.9,240.4 240.5,210 		"/>
		<path class="st8" d="M291.3,153.4l9.9,26.3c-0.9-0.7-1.9-1.3-3-1.8l-0.4-0.2c-3.9-1.8-8.2-1.8-12-0.5l-8.1-21.5
			C282.1,154.2,286.7,153.4,291.3,153.4z"/>
		<path class="st8" d="M266,162.8l9.6,25.5l-7.9,17.4l-11.4-30.3C258.7,170.4,262.1,166.1,266,162.8z"/>
		<path class="st8" d="M307.3,156.9l0.4,0.2c19.5,8.9,28.2,31.9,19.3,51.4l-0.2,0.5c0,0.1-0.1,0.2-0.1,0.3L307,156.7
			C307.1,156.8,307.2,156.8,307.3,156.9z"/>
		<path class="st8" d="M311.5,214.7L311.5,214.7c-5.7-2.6-8.2-9.3-5.6-15l0.3-0.6c0.5-1.1,0.8-2.2,1.1-3.3l7.5,19.9
			C313.6,215.4,312.5,215.1,311.5,214.7z"/>
		<polygon class="st8" points="232.7,227.4 244,257.7 236.2,275.1 224.8,244.8 		"/>
		<polygon class="st8" points="228.3,292.5 228,293 207.2,283.5 216.9,262.1 		"/>
		<path class="st1" d="M307,156.7l19.7,52.4c-2.2,4.6-7.1,7.1-12,6.4l-7.5-19.9c1.3-6-1.1-12.3-6-16l-9.9-26.3
			C296.6,153.4,301.9,154.5,307,156.7z"/>
		<path class="st1" d="M277.8,155.8l8.1,21.5c-3.9,1.4-7.2,4.3-9.1,8.4l-1.2,2.6l-9.6-25.5C269.5,159.7,273.5,157.4,277.8,155.8z"/>
		<path class="st1" d="M255.9,176.2c0.1-0.3,0.3-0.6,0.4-0.8l11.4,30.3l-7.9,17.4l-11.4-30.4L255.9,176.2z"/>
		<polygon class="st1" points="240.5,210 251.9,240.4 244,257.7 232.7,227.4 		"/>
		<polygon class="st1" points="224.8,244.8 236.2,275.1 228.3,292.5 216.9,262.1 		"/>
	</g>
	<g id="_x30_3">
		<circle class="st5" cx="213.8" cy="119.3" r="21.3"/>
		<path class="st4" d="M216.3,84.3h-4.9c-2.8,0-5.1,2.3-5.1,5.1V99h15.1v-9.5C221.4,86.6,219.1,84.3,216.3,84.3z"/>
		<line class="st0" x1="213.8" y1="84.3" x2="213.8" y2="0"/>
		<circle class="st5" cx="213.8" cy="54.5" r="8.8"/>
		<circle class="st5" cx="213.8" cy="30.5" r="5.1"/>
	</g>
	<g id="_x30_2">
		<line class="st0" x1="143.2" y1="197.4" x2="143.2" y2="0"/>
		<circle class="st7" cx="143.2" cy="144.9" r="8.8"/>
		<circle class="st7" cx="143.2" cy="120.9" r="5.1"/>
		<path class="st7" d="M150.8,167.5c0.3-0.1,0.6-0.2,0.9-0.1c1.1,0.1,1.9,1.1,1.8,2.1c-1,10.6-6.1,20-10.9,27.8
			c-1.3,2-2.5,4.1-3.8,6.1c-3.9,6-7.9,12.3-10.7,18.9c-7.8,18.5-6,39.9-4.5,58.7c0.1,1.1-0.7,2-1.8,2.1c-1.1,0.1-2-0.7-2.1-1.8
			c-1.6-19.3-3.3-41.1,4.8-60.5c2.9-7,7-13.3,11-19.5c1.3-2,2.6-4,3.8-6c4.6-7.4,9.4-16.4,10.4-26.1
			C149.6,168.4,150.1,167.8,150.8,167.5z"/>
		<path class="st7" d="M135.2,202.2c-0.7,3.8-4.4,6.4-8.2,7.1c-3.8,0.7-7.7-0.1-11.5-0.6c-5.9-0.8-12-0.9-17.8,0.5s-11.4,4.4-15,9.2
			c2.5-1.3,11.9-0.1,23.4,1.7c19.2,3,24.5-8.4,27.2-14"/>
		<path class="st7" d="M127.3,223.2c-0.3,3.6-3.6,6.4-7.1,7.4s-7.2,0.6-10.9,0.5c-5.7-0.2-11.4,0.2-16.8,2.1
			c-5.4,1.8-10.3,5.2-13.4,10c2.2-1.5,11.2-1.2,22.2-0.5c18.4,1.2,22.4-10.1,24.4-15.6"/>
		<path class="st7" d="M119.3,274.2c3,2,1.5,7.3,0.7,10.9s-2.9,6.7-4.7,9.8c-2.9,4.9-5.2,10.2-6.2,15.7c-0.9,5.6-0.3,11.6,2.4,16.5
			c-0.3-2.6,4.3-10.4,10.1-19.8c9.8-15.6,1.8-24.5-2.2-28.9"/>
		<path class="st7" d="M121.3,247.6c0.1,3.2-2.4,6-5.4,7.2c-2.9,1.3-6.2,1.3-9.4,1.6c-4.9,0.5-9.9,1.5-14.3,3.7s-8.4,5.7-10.5,10.2
			c1.7-1.5,9.6-2.3,19.2-2.9c16.1-1.1,18.3-11.3,19.4-16.3"/>
		<path class="st7" d="M122.6,277.2c0.1,2.9-2.2,5.4-4.8,6.5c-2.6,1.1-5.6,1.2-8.5,1.5c-4.5,0.4-8.9,1.3-12.9,3.3s-7.5,5.1-9.4,9.2
			c1.6-1.4,8.6-2.1,17.3-2.6c14.5-1,16.5-10.2,17.5-14.7"/>
		<path class="st7" d="M135.2,201.2c-2.2,3.1-1.4,7.6,0.8,10.7c2.2,3.1,5.4,5.3,8.4,7.7c4.7,3.6,9.1,7.8,12.2,12.9
			c3.1,5.1,4.8,11.1,4.1,17c-0.8-2.7-8.2-8.4-17.6-15.3c-15.6-11.4-11.3-23.1-9.2-28.9"/>
		<path class="st7" d="M126.2,223.5c-1.9,2.7-1.2,6.5,0.7,9.2s4.7,4.6,7.2,6.6c4,3.1,7.8,6.7,10.4,11.1s4.1,9.5,3.5,14.6
			c-0.7-2.3-7.1-7.2-15.1-13.1c-13.4-9.8-9.7-19.9-7.9-24.8"/>
		<path class="st7" d="M121,249.3c-1.4,2.5-0.4,5.8,1.5,8c1.9,2.2,4.5,3.6,6.9,5.1c3.8,2.3,7.4,5.1,10.1,8.7
			c2.7,3.5,4.5,7.9,4.4,12.4c-0.8-1.9-6.8-5.7-14.4-10c-12.6-7.3-10.3-16.4-9.2-20.9"/>
		<path class="st7" d="M122.3,270.3c-1.4,2.5-0.4,5.8,1.5,8s4.5,3.6,6.9,5.1c3.8,2.3,7.4,5.1,10.1,8.7c2.7,3.5,4.5,7.9,4.4,12.4
			c-0.8-1.9-6.8-5.7-14.4-10c-12.6-7.3-10.3-16.4-9.2-20.9"/>
		<path class="st7" d="M178.5,244.1c0.7-0.1,1.3-0.5,1.7-1.2c0.7-1.1,0.3-2.6-0.9-3.3c-7.5-4.3-13.8-10.9-17.7-18.7
			c-1.3-2.6-2.3-5.3-3.4-8.1c-0.7-1.9-1.5-3.9-2.3-5.8c-3.8-8.6-9.4-16.6-16.2-23.1c-1-0.9-2.5-0.9-3.4,0.1s-0.9,2.5,0.1,3.4
			c6.4,6,11.6,13.5,15.1,21.6c0.8,1.8,1.5,3.8,2.3,5.6c1.1,2.8,2.2,5.7,3.6,8.5c4.3,8.6,11.2,15.9,19.6,20.7
			C177.5,244.1,178,244.2,178.5,244.1z"/>
		<path class="st7" d="M178.1,227.2c2-0.3,3.9-0.8,5.7-1.6c1.2-0.5,1.8-1.9,1.4-3.1c-0.5-1.2-1.9-1.8-3.1-1.4
			c-6.6,2.6-14.2,2.1-20.3-1.3c-1.2-0.6-2.6-0.2-3.2,0.9c-0.6,1.2-0.2,2.6,0.9,3.2C165.1,227.1,171.8,228.2,178.1,227.2z"/>
		<path class="st7" d="M163.2,249.8c0.1,0,0.2,0,0.3-0.1c1.3-0.4,2-1.7,1.6-3c-2.1-7.2-1.7-15-1.3-22.5c0.1-1.3-0.9-2.4-2.3-2.5
			c-1.3-0.1-2.4,0.9-2.5,2.3c-0.4,7.5-0.8,16.1,1.5,24.1C160.9,249.3,162,250,163.2,249.8z"/>

			<ellipse transform="matrix(0.9222 -0.3867 0.3867 0.9222 -71.4469 88.4638)" class="st1" cx="184.1" cy="221.8" rx="8.6" ry="8.6"/>

			<ellipse transform="matrix(0.9222 -0.3867 0.3867 0.9222 -80.7474 90.4201)" class="st1" cx="184.4" cy="245.9" rx="8.6" ry="8.6"/>
		<ellipse transform="matrix(0.9222 -0.3867 0.3867 0.9222 -85.4429 83.2727)" class="st1" cx="164.2" cy="254" rx="8.6" ry="8.6"/>
		<path class="st7" d="M142,283.1c0.6-0.1,1.1-0.4,1.5-0.9c5.8-7.7,9.2-17.2,9.8-26.8c0.2-3.1,0-6.3-0.1-9.3c-0.1-2-0.2-4.1-0.2-6.1
			c0-8.8,1.9-17.7,5.3-25.8c0.5-1.2,0-2.6-1.3-3.1c-1.2-0.5-2.6,0-3.1,1.3c-3.7,8.7-5.7,18.2-5.7,27.7c0,2.1,0.1,4.2,0.2,6.3
			c0.1,3,0.2,5.9,0.1,8.8c-0.5,8.7-3.6,17.2-8.8,24.2c-0.8,1.1-0.6,2.6,0.5,3.3C140.8,283.1,141.4,283.2,142,283.1z"/>
		<path class="st7" d="M133.6,267.8c7.1-1.2,13.7-5,18.1-10.7c0.8-1,0.6-2.5-0.4-3.4c-1-0.8-2.5-0.6-3.4,0.4
			c-4.3,5.6-11.1,9-18.1,9.3c-1.3,0-2.4,1.1-2.3,2.5c0,1.3,1.1,2.4,2.5,2.3C131.2,268.1,132.4,268,133.6,267.8z"/>
		<path class="st7" d="M158.4,282.3c1.3-0.2,2.1-1.4,2-2.7c-1.1-8.2-4.9-15.9-8.2-22.7c-0.6-1.2-2-1.7-3.2-1.1
			c-1.2,0.6-1.7,2-1.1,3.2c3.3,6.7,6.8,13.7,7.7,21.2C155.8,281.6,157,282.5,158.4,282.3C158.3,282.3,158.3,282.3,158.4,282.3z"/>

			<ellipse transform="matrix(0.9999 -1.037699e-002 1.037699e-002 0.9999 -2.7408 1.344)" class="st1" cx="128.1" cy="264.8" rx="8.6" ry="8.6"/>

			<ellipse transform="matrix(0.9999 -1.037699e-002 1.037699e-002 0.9999 -2.9706 1.4428)" class="st1" cx="137.5" cy="287" rx="8.6" ry="8.6"/>

			<ellipse transform="matrix(0.9999 -1.037121e-002 1.037121e-002 0.9999 -2.9627 1.6659)" class="st1" cx="159.1" cy="286.5" rx="8.6" ry="8.6"/>
		<path class="st1" d="M145.2,198.6c0,0,0.1-0.3,0.2-1c0.2-0.6,0.4-1.6,0.8-2.7c0.4-1.2,0.9-2.6,1.6-4.1c0.7-1.6,1.6-3.3,2.6-5.2
			c2.2-3.7,5.2-7.7,9.1-11.5c1-0.9,2-1.9,3.1-2.8c1.1-0.9,2.3-1.8,3.7-2.6c0.7-0.4,1.4-0.7,2.2-1c0.4-0.1,0.8-0.3,1.2-0.4l0.6-0.2
			l0.7-0.1c1.9-0.3,3.8-0.2,5.8,0.7c1,0.5,2,1.2,2.8,2.2c0.2,0.2,0.4,0.5,0.5,0.8l0.1,0.2l0.2,0.3l0.1,0.2c0,0.1,0.2,0.6,0.3,0.9
			c0.1,0.4,0.1,0.6,0.2,1c0.2,1.2,0,2.3-0.2,3.3c-0.3,1-0.7,1.8-1.1,2.6c-0.8,1.5-1.9,2.7-2.8,3.7c-0.9,0.9-1.9,2-2.9,2.9
			c-3.9,3.7-7.9,6.6-11.4,8.8c-3.5,2.3-6.6,3.9-8.8,5s-3.4,1.7-3.4,1.7s1-1,2.7-2.7s4.3-4.1,7.2-6.9c3-2.8,6.4-6.1,9.6-9.9
			c0.8-1,1.6-1.8,2.4-2.9c0.8-1,1.4-1.9,1.9-2.8c0.5-0.9,0.6-1.7,0.5-2V174c0,0,0.1,0.2,0-0.1l-0.1-0.2v-0.1l0,0
			c-0.1-0.2,0.1,0.2,0.1,0.2l0,0c0,0,0-0.1-0.1-0.1c-0.1-0.1-0.2-0.2-0.4-0.3c-0.5-0.2-1.4-0.4-2.2-0.2h-0.3l-0.4,0.1
			c-0.2,0.1-0.5,0.1-0.7,0.2c-0.5,0.2-1,0.4-1.5,0.6c-2,1-4,2.6-6,4.1c-3.8,3.1-7.2,6.4-9.8,9.4c-1.3,1.5-2.5,2.9-3.5,4.3
			c-1,1.3-1.9,2.5-2.6,3.5C145.9,197.5,145.2,198.6,145.2,198.6z"/>
		<path class="st1" d="M140.2,201.4c0,0-0.3,0-1-0.1c-0.6-0.1-1.6-0.2-2.8-0.4s-2.7-0.6-4.3-1.1c-1.7-0.5-3.5-1.1-5.5-2
			c-3.9-1.7-8.3-4.2-12.5-7.5c-1.1-0.8-2.1-1.7-3.1-2.7s-2.1-2.1-3-3.4c-0.5-0.6-0.9-1.3-1.3-2.1c-0.2-0.4-0.4-0.8-0.6-1.1l-0.2-0.6
			l-0.2-0.7c-0.5-1.8-0.7-3.7-0.1-5.9c0.3-1.1,0.9-2.2,1.8-3c0.2-0.2,0.5-0.4,0.7-0.6l0.2-0.1l0.3-0.2l0.2-0.1
			c0.1-0.1,0.5-0.3,0.8-0.4c0.4-0.2,0.6-0.2,0.9-0.3c1.2-0.3,2.3-0.3,3.3-0.2s1.9,0.4,2.7,0.7c1.6,0.6,3,1.5,4.1,2.3
			c1,0.7,2.2,1.6,3.2,2.5c4.2,3.4,7.5,7,10.2,10.2c2.7,3.2,4.7,6,6.1,8c1.4,2,2.1,3.2,2.1,3.2s-1.1-0.8-3-2.3s-4.6-3.7-7.8-6.3
			s-6.9-5.5-11-8.3c-1.1-0.7-2-1.3-3.2-2c-1.1-0.7-2-1.2-3-1.5c-0.9-0.3-1.8-0.4-2-0.3h-0.1c0,0,0.1-0.1-0.1,0l-0.2,0.1h-0.1l0,0
			c-0.2,0.1,0.2-0.1,0.2-0.1l0,0c0,0-0.1,0-0.1,0.1c-0.1,0.1-0.2,0.2-0.3,0.5c-0.2,0.5-0.2,1.4,0,2.2l0.1,0.3l0.1,0.4
			c0.1,0.2,0.2,0.5,0.3,0.7c0.2,0.5,0.5,0.9,0.8,1.4c1.2,1.8,3.1,3.7,4.8,5.4c3.6,3.4,7.2,6.3,10.6,8.5c1.7,1.1,3.2,2.1,4.7,3
			c1.4,0.8,2.7,1.5,3.8,2.1C138.9,200.7,140.2,201.4,140.2,201.4z"/>
		<circle class="st1" cx="142.8" cy="198.1" r="7.7"/>
		<path class="st1" d="M147.5,195.6c0,0,0.3,0.3,0.8,0.9c0.5,0.6,1.3,1.4,2.3,2.4s2.3,2.1,3.8,3.2c1.5,1.1,3.4,2.3,5.4,3.2
			c0.5,0.2,1.1,0.5,1.6,0.6c0.3,0.1,0.6,0.2,0.9,0.3c0.3,0.1,0.5,0.2,0.8,0.2c1.1,0.3,2.4,0.6,3.6,0.7c2.5,0.3,5.1,0.1,7.6-0.6
			c0.6-0.2,1.2-0.4,1.8-0.7c0.6-0.2,1.2-0.6,1.7-0.9c1.1-0.7,2-1.5,2.8-2.4c0.4-0.5,0.7-1,1-1.5c0.1-0.2,0.2-0.5,0.3-0.8
			c0-0.1,0.1-0.3,0.1-0.4l0.1-0.2v-0.1l0,0l0,0c0,0-0.1,0.2,0,0.1l0.1-0.6c0-0.2,0-0.2,0-0.3c0-0.2,0-0.5,0-0.7c0-0.5-0.1-1-0.3-1.5
			c-0.3-1-0.9-1.8-1.6-2.2c-0.2-0.1-0.3-0.2-0.5-0.3h-0.1l0,0c0.1,0-0.2-0.1,0.2,0.1h-0.1l-0.3-0.1l-0.3-0.1l0,0c0,0-0.2,0-0.4,0
			s-0.4,0-0.6,0.1c-0.8,0.2-1.6,0.8-1.9,1.3c-0.2,0.3-0.3,0.5-0.3,0.7v0.1l0,0l0,0c0-0.1,0,0.1,0-0.1l0,0c0,0.2,0.1,0.5,0.1,0.4l0,0
			v0.1c0,0.1,0.1,0.2,0.1,0.3c0.3,0.7,1.1,1.5,2,2.1c0.2,0.1,0.5,0.3,0.6,0.4c0.3,0.1,0.7,0.3,0.9,0.4c0.4,0.2,1.1,0.3,1.6,0.5
			c2.2,0.5,4.6,0.2,6.5-0.5c0.5-0.2,1-0.4,1.4-0.7c0.2-0.1,0.4-0.2,0.6-0.4c0.2-0.2,0.5-0.3,0.7-0.5c0.7-0.5,1.5-1.2,2-1.9
			c1.2-1.4,1.9-2.9,2.4-4.2c0.4-1.3,0.6-2.4,0.7-3.1c0.1-0.8,0.1-1.2,0.1-1.2s0,0.1,0.1,0.3c0,0.2,0.2,0.5,0.2,0.9
			c0.1,0.8,0.3,1.9,0.2,3.4s-0.5,3.3-1.6,5.2c-0.5,1-1.1,1.9-2.1,2.9c-0.2,0.2-0.4,0.4-0.6,0.6c-0.3,0.3-0.5,0.4-0.8,0.7
			c-0.5,0.4-1.1,0.8-1.7,1.1c-2.4,1.4-5.5,2.2-8.8,2c-0.8-0.1-1.6-0.2-2.5-0.5c-0.5-0.1-0.7-0.2-1.1-0.3c-0.6-0.2-0.9-0.3-1.3-0.6
			c-1.6-0.8-3.3-2-4.5-4c-0.1-0.3-0.3-0.5-0.4-0.8l-0.2-0.4l-0.2-0.5c-0.1-0.4-0.1-0.5-0.2-0.7v-0.2v-0.1v-0.2V196
			c0-1.3,0.3-2.6,0.9-3.7c1.2-2.2,3.2-3.6,5.4-4.3c0.6-0.2,1.2-0.3,1.8-0.4c0.6,0,1.2-0.1,2,0.1l0.6,0.1l0.3,0.1l0.3,0.1h0.1
			c0.4,0.1,0.2,0.1,0.3,0.1h0.1l0.2,0.1c0.6,0.2,1.1,0.5,1.6,0.8c2.1,1.3,3.4,3.4,4.1,5.4c0.4,1.1,0.6,2.1,0.6,3.3
			c0,0.6,0,1.1,0,1.7c0,0.3-0.1,0.7-0.1,0.9l-0.1,0.6l-0.1,0.2v0.1l-0.1,0.2l-0.1,0.4c-0.1,0.3-0.2,0.5-0.3,0.8
			c-0.2,0.5-0.4,1-0.7,1.4c-0.5,0.9-1.1,1.8-1.8,2.5c-2.7,3-6.2,4.7-9.6,5.4c-3.4,0.7-6.8,0.6-9.8-0.1c-1.5-0.4-2.9-0.8-4.2-1.4
			c-0.3-0.2-0.7-0.3-1-0.5s-0.6-0.3-0.9-0.5c-0.7-0.4-1.2-0.7-1.7-1.1c-2.2-1.4-3.9-3.1-5.3-4.6c-1.4-1.5-2.4-3-3.2-4.2
			s-1.3-2.3-1.6-3C147.6,196,147.5,195.6,147.5,195.6z"/>
		<path class="st1" d="M135.2,200c0,0-0.3,0-0.8-0.1s-1.2-0.1-2.1-0.1c-0.9,0-2,0.2-3.2,0.5s-2.4,0.8-3.6,1.6
			c-1.2,0.7-2.4,1.7-3.6,2.9s-2.2,2.5-3.3,4.1c-0.4,0.7-0.9,1.5-1.2,2.3c-0.4,0.8-0.7,1.6-0.9,2.5c-0.5,1.7-0.7,3.4-0.4,4.8
			c0.1,0.7,0.4,1.5,0.6,2c0.1,0.2,0.3,0.5,0.3,0.6l0.3,0.5c0.2,0.4,0.5,0.7,0.9,1.1c0.6,0.8,1.4,1.7,2,2.8c0.2,0.3,0.3,0.6,0.5,0.9
			c0.1,0.2,0.2,0.3,0.2,0.5l0.3,0.6c0.1,0.3,0.2,0.4,0.3,0.8c0.1,0.4,0.2,0.8,0.3,1.1c0.4,2.8-0.3,5.4-1.6,7.4
			c-0.7,1-1.5,1.9-2.4,2.5l-0.7,0.4l0,0l-0.1,0.1l0,0h-0.1l-0.1,0.1l-0.3,0.1c-0.4,0.2-1,0.5-1.5,0.5c-1.9,0.5-3.6,0.4-5,0.2
			s-2.5-0.6-3.5-0.9c-0.9-0.3-1.6-0.7-2.1-0.9s-0.7-0.3-0.7-0.3s1.1,0,3,0c0.9,0,2.1-0.1,3.3-0.3c1.2-0.2,2.5-0.5,3.6-1.2
			c0.3-0.2,0.4-0.3,0.8-0.5l0.3-0.2l0.1-0.1h0.1l0,0c0,0-0.1,0.1-0.1,0l0,0l0.3-0.3c0.4-0.5,0.8-1,1-1.6c0.5-1.2,0.6-2.7,0.3-3.9
			c0-0.2-0.1-0.2-0.1-0.3l-0.3-0.6c0,0,0.1,0.2,0,0.1l0,0l0,0v-0.1l-0.1-0.1c0-0.1-0.1-0.1-0.1-0.2c-0.1-0.1-0.2-0.3-0.3-0.5
			c-0.5-0.6-1.1-1.3-1.8-2.1c-0.4-0.4-0.7-0.9-1.1-1.4c-0.2-0.3-0.4-0.5-0.6-0.8c-0.2-0.4-0.4-0.6-0.5-0.8c-0.8-1.4-1.2-2.7-1.5-4.1
			c-0.5-2.8,0-5.5,0.8-7.8c0.4-1.2,1-2.3,1.5-3.3c0.6-1,1.2-2,2-2.9c1.4-1.7,3-3.2,4.7-4.4s3.5-2.1,5.2-2.6s3.4-0.7,4.8-0.6
			c1.4,0,2.7,0.4,3.6,0.7c1,0.3,1.6,0.8,2.1,1C135,199.9,135.2,200,135.2,200z"/>
	</g>
	<g id="_x30_1">
		<line class="st0" x1="66.4" y1="100.9" x2="66.4" y2="0"/>
		<circle class="st5" cx="66.4" cy="66" r="8.8"/>
		<circle class="st5" cx="66.4" cy="42" r="5.1"/>
		<path class="st1" d="M28.9,128.8L2,201.8c-6,16.1,2.3,34.2,18.4,40.1l2.1,0.8c16.1,5.9,34.2-2.4,40.1-18.5l26.9-73L28.9,128.8z"/>
		<path class="st5" d="M37.7,89.8l69.6,25.7c2.5,0.9,3.8,3.7,2.9,6.2L98,154.8c-0.9,2.5-3.7,3.8-6.2,2.9L22.1,132
			c-2.5-0.9-3.8-3.7-2.9-6.2l12.2-33.1C32.4,90.2,35.2,88.9,37.7,89.8z"/>
		<path class="st5" d="M61.4,167.1L50.7,196c-2.3,6.3,0.2,13,5.5,15s11.6-1.6,13.9-7.8l10.7-28.9L61.4,167.1z"/>
		<line class="st0" x1="61.2" y1="226.8" x2="1.1" y2="204.6"/>
		<line class="st0" x1="82.4" y1="170.1" x2="22.3" y2="148"/>
		<path class="st5" d="M20,196L20,196c-0.3-0.3-0.3-0.8,0-1.1l21.6-23c0.3-0.3,0.8-0.3,1.1,0l0,0c0.3,0.3,0.3,0.8,0,1.1l-21.6,23
			C20.8,196.3,20.3,196.3,20,196z"/>
		<path class="st5" d="M38.3,176.2L38.3,176.2c-0.3-0.1-0.5-0.3-0.4-0.6l1-4.8c0.1-0.3,0.3-0.5,0.6-0.4l0,0c0.3,0.1,0.5,0.3,0.4,0.6
			l-1,4.8C38.9,176.1,38.6,176.3,38.3,176.2z"/>
		<path class="st5" d="M38.5,176.4L38.5,176.4c0.1,0.3,0.4,0.5,0.7,0.4l4.7-1.3c0.3-0.1,0.5-0.4,0.4-0.7l0,0
			c-0.1-0.3-0.4-0.5-0.7-0.4l-4.7,1.3C38.6,175.8,38.4,176.1,38.5,176.4z"/>
		<path class="st5" d="M24.4,191.1L24.4,191.1c-0.1-0.3-0.4-0.5-0.7-0.4L19,192c-0.3,0.1-0.5,0.4-0.4,0.7l0,0
			c0.1,0.3,0.4,0.5,0.7,0.4l4.7-1.3C24.3,191.7,24.5,191.4,24.4,191.1z"/>
		<path class="st5" d="M24.6,191.2L24.6,191.2c0.3,0.1,0.5,0.3,0.4,0.6l-1,4.8c-0.1,0.3-0.3,0.5-0.6,0.4l0,0
			c-0.3-0.1-0.5-0.3-0.4-0.6l1-4.8C24,191.4,24.3,191.2,24.6,191.2z"/>
		<path class="st5" d="M31.8,200.7L31.8,200.7c-0.4,0-0.8-0.3-0.8-0.7l-1-31.6c0-0.4,0.3-0.8,0.7-0.8l0,0c0.4,0,0.8,0.3,0.8,0.7
			l1,31.6C32.6,200.3,32.3,200.7,31.8,200.7z"/>
		<path class="st5" d="M30.9,173.7L30.9,173.7c-0.2,0.2-0.6,0.1-0.7-0.2l-2.7-4.1c-0.2-0.2-0.1-0.6,0.2-0.7l0,0
			c0.2-0.2,0.6-0.1,0.7,0.2L31,173C31.2,173.2,31.1,173.6,30.9,173.7z"/>
		<path class="st5" d="M31.1,173.7L31.1,173.7c0.3,0.1,0.6,0.1,0.7-0.2l2.4-4.3c0.1-0.3,0.1-0.6-0.2-0.7l0,0
			c-0.3-0.1-0.6-0.1-0.7,0.2l-2.4,4.3C30.7,173.3,30.8,173.6,31.1,173.7z"/>
		<path class="st5" d="M31.5,194.1L31.5,194.1c-0.3-0.1-0.6-0.1-0.7,0.2l-2.4,4.3c-0.1,0.3-0.1,0.6,0.2,0.7l0,0
			c0.3,0.1,0.6,0.1,0.7-0.2l2.4-4.3C31.9,194.6,31.8,194.2,31.5,194.1z"/>
		<path class="st5" d="M31.7,194.1L31.7,194.1c0.2-0.2,0.6-0.1,0.7,0.2l2.7,4.1c0.2,0.2,0.1,0.6-0.2,0.7l0,0
			c-0.2,0.2-0.6,0.1-0.7-0.2l-2.7-4.1C31.4,194.6,31.5,194.2,31.7,194.1z"/>
		<path class="st5" d="M43.4,195.2L43.4,195.2c-0.3,0.3-0.8,0.3-1.1,0l-23-21.6c-0.3-0.3-0.3-0.8,0-1.1l0,0c0.3-0.3,0.8-0.3,1.1,0
			l23,21.6C43.6,194.4,43.6,194.9,43.4,195.2z"/>
		<path class="st5" d="M23.6,176.9L23.6,176.9c-0.1,0.3-0.3,0.5-0.6,0.4l-4.8-1c-0.3-0.1-0.5-0.3-0.4-0.6l0,0
			c0.1-0.3,0.3-0.5,0.6-0.4l4.8,1C23.5,176.3,23.7,176.6,23.6,176.9z"/>
		<path class="st5" d="M23.8,176.7L23.8,176.7c0.3-0.1,0.5-0.4,0.4-0.7l-1.3-4.7c-0.1-0.3-0.4-0.5-0.7-0.4l0,0
			c-0.3,0.1-0.5,0.4-0.4,0.7l1.3,4.7C23.2,176.6,23.5,176.8,23.8,176.7z"/>
		<path class="st5" d="M38.5,190.8L38.5,190.8c-0.3,0.1-0.5,0.4-0.4,0.7l1.3,4.7c0.1,0.3,0.4,0.5,0.7,0.4l0,0
			c0.3-0.1,0.5-0.4,0.4-0.7l-1.3-4.7C39.1,190.9,38.8,190.7,38.5,190.8z"/>
		<path class="st5" d="M38.6,190.6L38.6,190.6c0.1-0.3,0.3-0.5,0.6-0.4l4.8,1c0.3,0.1,0.5,0.3,0.4,0.6l0,0c-0.1,0.3-0.3,0.5-0.6,0.4
			l-4.8-1C38.8,191.2,38.6,190.9,38.6,190.6z"/>
		<path class="st5" d="M48,183.4L48,183.4c0,0.4-0.3,0.8-0.7,0.8l-31.6,1c-0.4,0-0.8-0.3-0.8-0.7l0,0c0-0.4,0.3-0.8,0.7-0.8l31.6-1
			C47.7,182.6,48,183,48,183.4z"/>
		<path class="st5" d="M21.1,184.3L21.1,184.3c0.2,0.2,0.1,0.6-0.2,0.7l-4.1,2.7c-0.2,0.2-0.6,0.1-0.7-0.2l0,0
			c-0.2-0.2-0.1-0.6,0.2-0.7l4.1-2.7C20.6,184,21,184.1,21.1,184.3z"/>
		<path class="st5" d="M21.1,184.1L21.1,184.1c0.1-0.3,0.1-0.6-0.2-0.7l-4.3-2.4c-0.3-0.1-0.6-0.1-0.7,0.2l0,0
			c-0.1,0.3-0.1,0.6,0.2,0.7l4.3,2.4C20.6,184.5,21,184.4,21.1,184.1z"/>
		<path class="st5" d="M41.5,183.7L41.5,183.7c-0.1,0.3-0.1,0.6,0.2,0.7l4.3,2.4c0.3,0.1,0.6,0.1,0.7-0.2l0,0
			c0.1-0.3,0.1-0.6-0.2-0.7l-4.3-2.4C41.9,183.3,41.6,183.4,41.5,183.7z"/>
		<path class="st5" d="M41.5,183.5L41.5,183.5c-0.2-0.2-0.1-0.6,0.2-0.7l4.1-2.7c0.2-0.2,0.6-0.1,0.7,0.2l0,0
			c0.2,0.2,0.1,0.6-0.2,0.7l-4.1,2.7C42,183.8,41.6,183.7,41.5,183.5z"/>
		<path class="st5" d="M25.9,189.6c-3.2-3-3.3-7.9-0.4-11.1c3-3.2,7.9-3.3,11.1-0.4c3.2,3,3.3,7.9,0.4,11.1
			C34.1,192.4,29.1,192.6,25.9,189.6z M35.9,179c-2.7-2.5-7-2.4-9.5,0.3s-2.4,7,0.3,9.5s7,2.4,9.5-0.3
			C38.8,185.8,38.6,181.5,35.9,179z"/>
	</g>
</g>
</svg>
