<?xml version="1.0" encoding="utf-8"?>
<!-- Generator: Adobe Illustrator 19.2.1, SVG Export Plug-In . SVG Version: 6.00 Build 0)  -->
<svg version="1.1" id="Layer_1" xmlns="http://www.w3.org/2000/svg" xmlns:xlink="http://www.w3.org/1999/xlink" x="0px" y="0px"
	 viewBox="0 0 288.5 430.3" style="enable-background:new 0 0 288.5 430.3;" xml:space="preserve">
<style type="text/css">
	.st0{fill:#744333;}
	.st1{fill:#5B5B2F;}
	.st2{fill:#47471E;}
	.st3{fill:#FCF2E0;}
	.st4{fill:#48A88B;}
	.st5{fill:#C81B0F;}
	.st6{fill:#FDEFDC;}
	.st7{fill:#F7B03B;}
	.st8{fill:none;stroke:#FCF2E0;stroke-width:2;stroke-miterlimit:10;stroke-dasharray:2,4;}
	.st9{fill:#FBF1DF;}
	.st10{fill:#45AD91;}
</style>
<g class="chirs_tree">
	<g>
		<path class="st0" d="M144.3,430.3L144.3,430.3c-4.4,0-8-3.6-8-8v-87.6c0-4.4,3.6-8,8-8h0c4.4,0,8,3.6,8,8v87.6
			C152.3,426.7,148.7,430.3,144.3,430.3z"/>
		<polygon class="st1" points="288.5,390.3 234.7,297 266.9,297 203.8,187.8 234.1,187.8 144.3,32.2 54.4,187.8 84.7,187.8
			21.7,297 53.8,297 0,390.3 		"/>
	</g>
	<polygon class="st2" points="84.7,187.8 203.8,187.8 218.2,213.1 	"/>
	<polygon class="st2" points="53.8,297 235.1,297.1 249.4,322.4 	"/>
</g>
<g id="dot">
	<g>
		<circle class="st3" cx="124.6" cy="69.2" r="5.9"/>
		<circle class="st3" cx="143.5" cy="88.7" r="5.9"/>
		<circle class="st3" cx="166.3" cy="103.9" r="5.9"/>
		<circle class="st3" cx="133.2" cy="79.9" r="3.1"/>
		<circle class="st3" cx="154" cy="97" r="3.1"/>
		<circle class="st3" cx="179.1" cy="111.5" r="3.1"/>
	</g>
	<g>
		<circle class="st3" cx="83.3" cy="168.6" r="5.9"/>
		<circle class="st3" cx="108.6" cy="188.2" r="5.9"/>
		<circle class="st3" cx="133.8" cy="201.9" r="5.9"/>
		<circle class="st3" cx="163.1" cy="212.8" r="5.9"/>
		<circle class="st3" cx="194" cy="220.8" r="5.9"/>
		<circle class="st3" cx="95.3" cy="179.1" r="3.1"/>
		<circle class="st3" cx="120.5" cy="195.9" r="3.1"/>
		<circle class="st3" cx="148.8" cy="207.2" r="3.1"/>
		<circle class="st3" cx="178" cy="217.5" r="3.1"/>
		<circle class="st3" cx="209.3" cy="222.8" r="3.1"/>
	</g>
	<g>
		<circle class="st3" cx="225.2" cy="224.5" r="5.9"/>
		<circle class="st3" cx="205.3" cy="244.4" r="5.9"/>
		<circle class="st3" cx="176.4" cy="260" r="5.9"/>
		<circle class="st3" cx="146.5" cy="269" r="5.9"/>
		<circle class="st3" cx="116.9" cy="276" r="5.9"/>
		<circle class="st3" cx="86" cy="280.6" r="5.9"/>
		<circle class="st3" cx="52.7" cy="284" r="5.9"/>
		<circle class="st3" cx="216.9" cy="236.1" r="3.1"/>
		<circle class="st3" cx="190.7" cy="253.1" r="3.1"/>
		<circle class="st3" cx="162.1" cy="265" r="3.1"/>
		<circle class="st3" cx="132.2" cy="273" r="3.1"/>
		<circle class="st3" cx="101.3" cy="278.3" r="3.1"/>
		<circle class="st3" cx="70.3" cy="282" r="3.1"/>
		<circle class="st3" cx="36.4" cy="280" r="3.1"/>
	</g>
	<g>
		<circle class="st3" cx="42.1" cy="295.3" r="5.9"/>
		<circle class="st3" cx="65.7" cy="313.2" r="5.9"/>
		<circle class="st3" cx="92.3" cy="328.2" r="5.9"/>
		<circle class="st3" cx="123.2" cy="339.1" r="5.9"/>
		<circle class="st3" cx="155.1" cy="348.4" r="5.9"/>
		<circle class="st3" cx="185.3" cy="356.7" r="5.9"/>
		<circle class="st3" cx="212.3" cy="365.1" r="5.9"/>
		<circle class="st3" cx="242.8" cy="371" r="5.9"/>
		<circle class="st3" cx="273.1" cy="375" r="5.9"/>
		<circle class="st3" cx="52.1" cy="305.9" r="3.1"/>
		<circle class="st3" cx="78.7" cy="321.2" r="3.1"/>
		<circle class="st3" cx="107.2" cy="335.8" r="3.1"/>
		<circle class="st3" cx="139.1" cy="344.1" r="3.1"/>
		<circle class="st3" cx="170.1" cy="353.1" r="3.1"/>
		<circle class="st3" cx="198.3" cy="361.1" r="3.1"/>
		<circle class="st3" cx="227.2" cy="369" r="3.1"/>
		<circle class="st3" cx="257.8" cy="374.4" r="3.1"/>
	</g>
	<g>
		<circle class="st3" cx="194.4" cy="116.6" r="5.9"/>
		<circle class="st3" cx="172.3" cy="133.2" r="5.9"/>
		<circle class="st3" cx="147.4" cy="143.4" r="5.9"/>
		<circle class="st3" cx="121.5" cy="151.1" r="5.9"/>
		<circle class="st3" cx="93.8" cy="155.8" r="5.9"/>
		<circle class="st3" cx="185.3" cy="126.8" r="3.1"/>
		<circle class="st3" cx="160.3" cy="139.2" r="3.1"/>
		<circle class="st3" cx="134.8" cy="148.5" r="3.1"/>
		<circle class="st3" cx="108.2" cy="153.8" r="3.1"/>
		<circle class="st3" cx="78.8" cy="154.2" r="3.1"/>
	</g>
</g>
<g id="balb">
	<g>
		<path class="st4" d="M102.3,211.8c0,11.8-9.6,21.4-21.4,21.4c-11.8,0-21.4-9.6-21.4-21.4"/>
		<path class="st5" d="M59.5,211.8c0-11.8,9.6-21.4,21.4-21.4c11.8,0,21.4,9.6,21.4,21.4"/>
		<path class="st6" d="M102,215.6c0.2-1.3,0.4-2.5,0.4-3.9c0-2.5-0.4-4.9-1.2-7.1H60.7c-0.8,2.2-1.2,4.6-1.2,7.1
			c0,1.3,0.1,2.6,0.4,3.9H102z"/>
		<path class="st7" d="M80.9,182.1L80.9,182.1c-2.5,0-4.5,2-4.5,4.5v4.3h9.1v-4.3C85.4,184.2,83.4,182.1,80.9,182.1z"/>
		<line class="st8" x1="62.9" y1="200.7" x2="98.9" y2="200.7"/>
		<line class="st8" x1="61.3" y1="219.2" x2="100.5" y2="219.2"/>
		<g>
			<circle class="st4" cx="63" cy="210.5" r="2.6"/>
			<circle class="st5" cx="68.7" cy="210.5" r="1.5"/>
			<circle class="st5" cx="80.4" cy="210.5" r="1.5"/>
			<circle class="st5" cx="92.7" cy="210.5" r="1.5"/>
			<circle class="st4" cx="74.7" cy="210.5" r="2.6"/>
			<circle class="st4" cx="86.6" cy="210.5" r="2.6"/>
			<circle class="st4" cx="98.8" cy="210.5" r="2.6"/>
		</g>
	</g>
	<g>
		<g>
			<circle class="st5" cx="151.7" cy="314.6" r="21.2"/>
			<g>
				<g>
					<g>
						<path class="st9" d="M151.7,293.3c-0.4,0-0.8,0-1.1,0l-20.1,20.1c0,0.4,0,0.7,0,1.1c0,2.3,0.4,4.6,1.1,6.7l26.8-26.8
							C156.3,293.7,154,293.3,151.7,293.3z"/>
					</g>
					<g>
						<path class="st9" d="M164.3,297.5l-29.7,29.7c1.2,1.7,2.7,3.2,4.4,4.5l29.7-29.7C167.5,300.2,166,298.7,164.3,297.5z"/>
					</g>
					<g>
						<path class="st9" d="M172.9,314.6c0-2.4-0.4-4.7-1.1-6.8l-26.9,26.9c2.1,0.7,4.4,1.1,6.8,1.1c0.3,0,0.6,0,1,0l20.2-20.2
							C172.9,315.2,172.9,314.9,172.9,314.6z"/>
					</g>
				</g>
			</g>
		</g>
		<path class="st7" d="M151.3,286.3L151.3,286.3c-2.5,0-4.5,2-4.5,4.5v4.3h9.1v-4.3C155.8,288.3,153.8,286.3,151.3,286.3z"/>
	</g>
	<g>
		<circle class="st9" cx="180.5" cy="171" r="20.6"/>
		<path class="st5" d="M159.9,171.6c0.1,11.3,9.3,20.5,20.6,20.5s20.5-9.1,20.6-20.5H159.9z"/>
		<line class="st8" x1="161.6" y1="179" x2="199.4" y2="179"/>
		<path class="st7" d="M180.5,142.2L180.5,142.2c-2.5,0-4.5,2-4.5,4.5v4.3h9.1v-4.3C185,144.2,183,142.2,180.5,142.2z"/>
	</g>
	<g>
		<g>
			<circle class="st5" cx="227.9" cy="286.3" r="25"/>
			<circle class="st7" cx="227.9" cy="286.3" r="13.8"/>
			<circle class="st8" cx="227.9" cy="286.3" r="21.1"/>
		</g>
		<path class="st7" d="M227.1,253.4L227.1,253.4c-2.5,0-4.5,2-4.5,4.5v4.3h9.1v-4.3C231.7,255.4,229.6,253.4,227.1,253.4z"/>
	</g>
	<g>
		<g>
			<circle class="st4" cx="46.2" cy="360.3" r="26.6"/>
			<circle class="st8" cx="46.2" cy="360.3" r="22.4"/>
			<g>
				<circle class="st7" cx="46.1" cy="360" r="5.4"/>
				<g>
					<ellipse class="st5" cx="46.2" cy="347.7" rx="1.6" ry="5.4"/>
					<ellipse class="st5" cx="46.2" cy="372.9" rx="1.6" ry="5.4"/>
				</g>
				<g>
					<ellipse transform="matrix(0.866 -0.5 0.5 0.866 -169.3543 66.7771)" class="st5" cx="39.9" cy="349.4" rx="1.6" ry="5.4"/>
					<ellipse transform="matrix(0.866 -0.5 0.5 0.866 -178.559 75.9819)" class="st5" cx="52.5" cy="371.2" rx="1.6" ry="5.4"/>
				</g>
				<g>
					<ellipse transform="matrix(0.5 -0.866 0.866 0.5 -288.9167 207.5987)" class="st5" cx="35.3" cy="354" rx="1.6" ry="5.4"/>
					<ellipse transform="matrix(0.5 -0.866 0.866 0.5 -288.9167 232.7464)" class="st5" cx="57.1" cy="366.6" rx="1.6" ry="5.4"/>
				</g>
				<g>
					<ellipse class="st5" cx="33.6" cy="360.3" rx="5.4" ry="1.6"/>
					<ellipse class="st5" cx="58.8" cy="360.3" rx="5.4" ry="1.6"/>
				</g>
				<g>
					<ellipse transform="matrix(0.866 -0.5 0.5 0.866 -178.5595 66.7775)" class="st5" cx="35.3" cy="366.6" rx="5.4" ry="1.6"/>
					<ellipse transform="matrix(0.866 -0.5 0.5 0.866 -169.3547 75.9823)" class="st5" cx="57.1" cy="354" rx="5.4" ry="1.6"/>
				</g>
				<g>
					<ellipse transform="matrix(0.5 -0.866 0.866 0.5 -301.4908 220.1731)" class="st5" cx="39.9" cy="371.2" rx="5.4" ry="1.6"/>
					<ellipse transform="matrix(0.5 -0.866 0.866 0.5 -276.3431 220.1731)" class="st5" cx="52.5" cy="349.4" rx="5.4" ry="1.6"/>
				</g>
			</g>
		</g>
		<path class="st7" d="M46.8,324.8L46.8,324.8c-2.5,0-4.5,2-4.5,4.5v4.3h9.1v-4.3C51.3,326.9,49.3,324.8,46.8,324.8z"/>
	</g>
	<g>
		<path class="st7" d="M193.3,370.5L193.3,370.5c-2.5,0-4.5,2-4.5,4.5v4.3h9.1v-4.3C197.9,372.6,195.8,370.5,193.3,370.5z"/>
		<circle class="st5" cx="193.3" cy="392" r="13.6"/>
	</g>
	<g>
		<path class="st7" d="M63.9,240.4L63.9,240.4c-2.5,0-4.5,2-4.5,4.5v4.3h9.1V245C68.4,242.5,66.4,240.4,63.9,240.4z"/>
		<circle class="st5" cx="63.9" cy="261.9" r="13.6"/>
	</g>
	<g>
		<path class="st7" d="M115.9,100.1L115.9,100.1c-2.5,0-4.5,2-4.5,4.5v4.3h9.1v-4.3C120.4,102.1,118.4,100.1,115.9,100.1z"/>
		<circle class="st10" cx="115.9" cy="121.6" r="13.6"/>
	</g>
	<g>
		<path class="st7" d="M244,327.9L244,327.9c-2.5,0-4.5,2-4.5,4.5v4.3h9.1v-4.3C248.5,329.9,246.5,327.9,244,327.9z"/>
		<circle class="st10" cx="244" cy="349.4" r="13.6"/>
	</g>
	<g>
		<path class="st7" d="M137.3,219.1L137.3,219.1c-2.5,0-4.5,2-4.5,4.5v4.3h9.1v-4.3C141.8,221.2,139.8,219.1,137.3,219.1z"/>
		<circle class="st3" cx="137.3" cy="240.6" r="13.6"/>
	</g>
	<g>
		<path class="st7" d="M106.2,350.8L106.2,350.8c-2.5,0-4.5,2-4.5,4.5v4.3h9.1v-4.3C110.7,352.8,108.7,350.8,106.2,350.8z"/>
		<circle class="st3" cx="106.2" cy="372.2" r="13.6"/>
	</g>
</g>

<!-- glow filter -->
<defs>
    <filter id="star_inner_shadow">
      <feOffset dx="0" dy="0" in="SourceGraphic" result="OffOut"/>
      <feGaussianBlur
        in="OffOut"
        stdDeviation="3"
        result="blurout"
      />
      <feMerge>
        <feMergeNode/>
        <feMergeNode in="SourceGraphic"/>
      </feMerge>


    </filter>
  </defs>
<polygon class="st7 star animation" filter="url(#star_inner_shadow)" points="144,0 153.6,17.4 173.2,21.2 160.2,35.3 162,55.5 143.8,46.8 126,55.5 128.6,35 114.8,21.2 133.7,17
	"/>
</svg>
